<svg width="490" height="210" viewBox="0 0 490 210" fill="none" xmlns="http://www.w3.org/2000/svg">
<rect x="397.344" y="39.6865" width="78.7521" height="25.6504" rx="3.21459" fill="#242634"/>
<rect x="306.44" y="39.6865" width="78.7521" height="25.6504" rx="3.21459" fill="#242634"/>
<path d="M350.638 51.8064H375.12V59.5295H350.638V51.8064Z" fill="#48A6EB"/>
<rect x="305.463" y="74.9849" width="170.635" height="82.4975" rx="3.49975" fill="#242634"/>
<rect x="406.425" y="85.5195" width="26.1833" height="7.72308" fill="#48A6EB"/>
<rect x="440.827" y="85.5195" width="26.1833" height="7.72308" fill="#515368"/>
<rect x="406.425" y="101.989" width="26.1833" height="7.72308" fill="#48A6EB"/>
<rect x="440.827" y="101.989" width="26.1833" height="7.72308" fill="#515368"/>
<rect x="406.425" y="118.462" width="26.1833" height="7.72308" fill="#48A6EB"/>
<rect x="440.827" y="118.462" width="26.1833" height="7.72308" fill="#515368"/>
<rect x="406.425" y="134.561" width="26.1833" height="7.72308" fill="#48A6EB"/>
<rect x="440.827" y="134.561" width="26.1833" height="7.72308" fill="#515368"/>
<rect x="206.379" y="1.5" width="281.609" height="174.215" rx="3.74962" stroke="#515368" stroke-width="3"/>
<line x1="205.893" y1="155.982" x2="489.486" y2="155.982" stroke="#515368" stroke-width="3"/>
<rect x="304.242" y="202.258" width="86.8963" height="6.22418" rx="3.11209" stroke="#515368" stroke-width="3"/>
<line y1="-1.5" x2="25.4091" y2="-1.5" transform="matrix(-0.250899 0.968013 -0.96829 -0.24983 319.816 176.163)" stroke="#515368" stroke-width="3"/>
<line y1="-1.5" x2="26.4087" y2="-1.5" transform="matrix(0.258327 0.966058 -0.96635 0.25723 374.121 176.163)" stroke="#515368" stroke-width="3"/>
<path d="M351.907 165.818C351.907 168.135 350.023 170.02 347.691 170.02C345.359 170.02 343.475 168.135 343.475 165.818C343.475 163.5 345.359 161.616 347.691 161.616C350.023 161.616 351.907 163.5 351.907 165.818Z" stroke="#515368" stroke-width="3"/>
<path d="M300.626 124.61C299.764 123.921 299.623 122.663 300.313 121.799L311.546 107.718C312.235 106.853 313.493 106.711 314.356 107.4C315.219 108.089 315.359 109.348 314.67 110.212L304.685 122.728L317.179 132.704C318.042 133.393 318.182 134.652 317.493 135.516C316.803 136.38 315.545 136.522 314.683 135.833L300.626 124.61ZM397.994 91.5602C368.349 113.239 329.023 121.991 302.096 125.034L301.653 121.057C328.318 118.044 366.823 109.402 395.637 88.3305L397.994 91.5602Z" fill="#2DA36A"/>
<path d="M298.788 94.3778C297.699 94.1963 296.964 93.1655 297.147 92.0756L300.126 74.3137C300.309 73.2238 301.34 72.4874 302.429 72.6689C303.518 72.8505 304.252 73.8812 304.07 74.9712L301.421 90.7594L317.195 93.3891C318.284 93.5706 319.018 94.6014 318.836 95.6913C318.653 96.7813 317.622 97.5177 316.533 97.3362L298.788 94.3778ZM340.96 56.3271C331.7 68.0892 315.414 83.2209 300.279 94.0322L297.959 90.7763C312.851 80.1385 328.841 65.2597 337.82 53.8534L340.96 56.3271Z" fill="#2DA36A"/>
<path d="M100.516 123.72C100.896 124.758 100.363 125.907 99.326 126.289L82.4297 132.502C81.3929 132.884 80.2446 132.352 79.8649 131.315C79.4852 130.278 80.018 129.128 81.0548 128.747L96.0737 123.223L90.5739 108.201C90.1942 107.164 90.727 106.014 91.7638 105.633C92.8006 105.251 93.9489 105.783 94.3286 106.82L100.516 123.72ZM52.4472 79.8471C56.701 90.1337 64.6661 99.0839 73.5391 106.367C82.3986 113.639 92.0449 119.153 99.4799 122.595L97.7971 126.227C90.1168 122.671 80.1692 116.988 71.0008 109.462C61.8459 101.948 53.3494 92.4983 48.7523 81.3812L52.4472 79.8471Z" fill="#2DA36A"/>
<mask id="path-22-inside-1_3946_20416" fill="white">
<rect x="337.616" y="40.2949" width="50.5254" height="31.0562" rx="3.74177"/>
</mask>
<rect x="337.616" y="40.2949" width="50.5254" height="31.0562" rx="3.74177" stroke="#2DA36A" stroke-width="10" mask="url(#path-22-inside-1_3946_20416)"/>
<mask id="path-23-inside-2_3946_20416" fill="white">
<rect x="394.255" y="73.9355" width="50.5254" height="31.0562" rx="3.74177"/>
</mask>
<rect x="394.255" y="73.9355" width="50.5254" height="31.0562" rx="3.74177" stroke="#2DA36A" stroke-width="10" mask="url(#path-23-inside-2_3946_20416)"/>
<rect x="108.709" y="76.4849" width="182.735" height="121.029" rx="3.74962" fill="#12161F" stroke="#515368" stroke-width="3"/>
<rect x="119.008" y="155.729" width="74.3805" height="7.69944" fill="white"/>
<rect x="170.217" y="181.525" width="26.1833" height="7.72308" fill="#48A6EB"/>
<rect x="205.154" y="181.525" width="26.1833" height="7.72308" fill="#242634"/>
<line x1="207.782" y1="87.319" x2="222.014" y2="87.319" stroke="#515368" stroke-width="5.24962" stroke-linecap="square"/>
<line x1="236.011" y1="87.319" x2="250.244" y2="87.319" stroke="#515368" stroke-width="5.24962" stroke-linecap="square"/>
<line x1="264.243" y1="87.319" x2="278.475" y2="87.319" stroke="#515368" stroke-width="5.24962" stroke-linecap="square"/>
<line x1="120.961" y1="87.319" x2="136.587" y2="87.319" stroke="white" stroke-width="5.24962" stroke-linecap="square"/>
<line x1="151.316" y1="87.319" x2="165.549" y2="87.319" stroke="#515368" stroke-width="5.24962" stroke-linecap="square"/>
<line x1="179.55" y1="87.319" x2="193.782" y2="87.319" stroke="#515368" stroke-width="5.24962" stroke-linecap="square"/>
<mask id="path-34-inside-3_3946_20416" fill="white">
<rect x="107.459" y="113.4" width="97.693" height="62.0504" rx="3.74177"/>
</mask>
<rect x="107.459" y="113.4" width="97.693" height="62.0504" rx="3.74177" stroke="#2DA36A" stroke-width="10" mask="url(#path-34-inside-3_3946_20416)"/>
<line x1="207.779" y1="105.655" x2="278.474" y2="105.655" stroke="#242634" stroke-width="5.24962" stroke-linecap="square"/>
<line x1="120.818" y1="105.655" x2="193.776" y2="105.655" stroke="#242634" stroke-width="5.24962" stroke-linecap="square"/>
<line x1="207.779" y1="117.583" x2="278.474" y2="117.583" stroke="#242634" stroke-width="5.24962" stroke-linecap="square"/>
<line x1="207.779" y1="129.537" x2="278.474" y2="129.537" stroke="#242634" stroke-width="5.24962" stroke-linecap="square"/>
<line x1="207.779" y1="141.596" x2="278.474" y2="141.596" stroke="#242634" stroke-width="5.24962" stroke-linecap="square"/>
<rect x="143.685" y="124.883" width="24.4897" height="24.2297" fill="white"/>
<rect x="148.055" y="129.125" width="5.24962" height="5.24962" fill="#12161F"/>
<rect x="158.555" y="129.125" width="5.24962" height="5.24962" fill="#12161F"/>
<rect x="158.555" y="139.624" width="5.24962" height="5.24962" fill="#12161F"/>
<rect x="148.055" y="139.624" width="5.24962" height="5.24962" fill="#12161F"/>
<rect x="153.305" y="134.375" width="5.24962" height="5.24962" fill="#12161F"/>
<path d="M80.6626 55.0907C80.6626 76.8927 62.9449 94.5729 41.0813 94.5729C19.2177 94.5729 1.5 76.8927 1.5 55.0907C1.5 33.2886 19.2177 15.6084 41.0813 15.6084C62.9449 15.6084 80.6626 33.2886 80.6626 55.0907Z" fill="#12161F" stroke="#515368" stroke-width="3"/>
<circle cx="51.5782" cy="63.8253" r="15.9688" fill="#12161F" stroke="#BBC4C9" stroke-width="3"/>
<path d="M52.9859 52.0542V55.8337H50.8318V52.0542H52.9859ZM52.7274 72.2901V75.5987H50.5877V72.2901H52.7274ZM55.5996 68.3742C55.5996 67.8786 55.4704 67.4325 55.2119 67.0359C54.9534 66.6394 54.5273 66.2759 53.9338 65.9454C53.3402 65.615 52.5455 65.3093 51.5498 65.0284C50.3435 64.7063 49.3 64.3139 48.4192 63.8512C47.5479 63.3886 46.873 62.8144 46.3943 62.1288C45.9252 61.4431 45.6906 60.6128 45.6906 59.638C45.6906 58.6219 45.9443 57.7462 46.4517 57.0109C46.9591 56.2757 47.6772 55.7098 48.6059 55.3133C49.5345 54.9167 50.626 54.7184 51.8801 54.7184C52.8567 54.7184 53.7279 54.8465 54.4938 55.1026C55.2597 55.3504 55.906 55.7222 56.4325 56.2179C56.9687 56.7135 57.3756 57.3207 57.6532 58.0395C57.9404 58.7582 58.0841 59.5884 58.0841 60.5302H55.4416C55.4416 59.9767 55.3651 59.4686 55.2119 59.006C55.0587 58.5434 54.8289 58.1427 54.5225 57.804C54.2162 57.457 53.8428 57.1927 53.4024 57.0109C52.962 56.8209 52.4546 56.7259 51.8801 56.7259C51.0759 56.7259 50.4105 56.8457 49.884 57.0853C49.367 57.3249 48.984 57.6636 48.7351 58.1014C48.4862 58.531 48.3617 59.0308 48.3617 59.6008C48.3617 60.1295 48.4862 60.5922 48.7351 60.9887C48.984 61.3852 49.4053 61.7446 49.9989 62.0668C50.602 62.3807 51.4302 62.6905 52.4833 62.9962C53.7183 63.3349 54.7667 63.7356 55.6283 64.1982C56.49 64.6526 57.1458 65.2143 57.5958 65.8835C58.0458 66.5444 58.2707 67.3664 58.2707 68.3495C58.2707 69.4152 57.9931 70.3156 57.4378 71.0509C56.8825 71.7779 56.1022 72.3314 55.097 72.7114C54.0917 73.0914 52.9141 73.2814 51.5642 73.2814C50.7504 73.2814 49.9462 73.1864 49.1516 72.9964C48.3569 72.8064 47.6389 72.4966 46.9974 72.067C46.356 71.6292 45.8438 71.055 45.4608 70.3445C45.0779 69.6258 44.8864 68.746 44.8864 67.7051H47.5575C47.5575 68.4073 47.6724 68.9897 47.9022 69.4523C48.1415 69.9067 48.4575 70.2702 48.85 70.5428C49.2425 70.8072 49.6734 70.9972 50.1425 71.1128C50.6212 71.2202 51.0951 71.2739 51.5642 71.2739C52.4259 71.2739 53.1535 71.1583 53.7471 70.927C54.3502 70.6874 54.8098 70.3487 55.1257 69.9108C55.4416 69.473 55.5996 68.9608 55.5996 68.3742Z" fill="#BBC4C9"/>
<circle cx="30.5841" cy="46.3565" r="15.9688" fill="#12161F" stroke="#BBC4C9" stroke-width="3"/>
<path fill-rule="evenodd" clip-rule="evenodd" d="M33.6222 35.0818C33.6222 34.4884 33.1412 34.0073 32.5477 34.0073C31.9543 34.0073 31.4733 34.4884 31.4733 35.0818V36.4874C31.3914 36.486 31.3088 36.4853 31.2255 36.4853H29.5524V35.082C29.5524 34.4886 29.0713 34.0075 28.4779 34.0075C27.8845 34.0075 27.4034 34.4886 27.4034 35.082V36.4853H24.7567V56.2306H25.7603H27.3741H27.4327V57.4219C27.4327 58.0153 27.9137 58.4964 28.5072 58.4964C29.1006 58.4964 29.5816 58.0153 29.5816 57.4219V56.2306H31.4733V57.4198C31.4733 58.0132 31.9543 58.4943 32.5477 58.4943C33.1412 58.4943 33.6222 58.0132 33.6222 57.4198V56.0488C34.1589 55.9406 34.6573 55.7843 35.1176 55.5797C36.0941 55.1367 36.849 54.4948 37.3824 53.654C37.9248 52.8041 38.1961 51.7644 38.1961 50.5349C38.1961 49.685 38.0198 48.9075 37.6672 48.2023C37.3236 47.4971 36.8218 46.9185 36.1619 46.4665C35.7526 46.1805 35.2877 45.9676 34.7671 45.8277C34.9543 45.7461 35.1344 45.6561 35.3075 45.5578C36.0488 45.142 36.6275 44.6085 37.0433 43.9576C37.4592 43.2976 37.6672 42.5608 37.6672 41.7471C37.6672 40.8249 37.5225 40.0338 37.2332 39.3739C36.9439 38.7139 36.519 38.1714 35.9584 37.7465C35.4069 37.3125 34.7334 36.9961 33.9378 36.7972C33.8339 36.77 33.7281 36.7447 33.6205 36.7211C33.6217 36.701 33.6222 36.6808 33.6222 36.6605V35.0818ZM28.0657 46.9953H27.3741V54.1015H31.673C32.5048 54.1015 33.21 53.9568 33.7886 53.6675C34.3763 53.3782 34.8238 52.9714 35.1312 52.447C35.4386 51.9136 35.5923 51.2853 35.5923 50.562C35.5923 49.8297 35.4612 49.1968 35.199 48.6634C34.9368 48.13 34.5255 47.7186 33.9649 47.4293C33.4044 47.14 32.6811 46.9953 31.7951 46.9953H28.0657ZM27.3741 38.628V44.8933H28.0928H31.3069C32.0573 44.8933 32.7127 44.7668 33.2733 44.5136C33.8338 44.2605 34.2678 43.8988 34.5752 43.4287C34.8916 42.9495 35.0498 42.38 35.0498 41.72C35.0498 40.9967 34.9097 40.409 34.6294 39.957C34.3582 39.4959 33.9378 39.1614 33.3682 38.9535C32.8077 38.7365 32.0934 38.628 31.2255 38.628H27.3741Z" fill="#BBC4C9"/>
<path fill-rule="evenodd" clip-rule="evenodd" d="M33.6222 35.0818C33.6222 34.4884 33.1412 34.0073 32.5477 34.0073C31.9543 34.0073 31.4733 34.4884 31.4733 35.0818V36.4874C31.3914 36.486 31.3088 36.4853 31.2255 36.4853H29.5524V35.082C29.5524 34.4886 29.0713 34.0075 28.4779 34.0075C27.8845 34.0075 27.4034 34.4886 27.4034 35.082V36.4853H24.7567V56.2306H25.7603H27.3741H27.4327V57.4219C27.4327 58.0153 27.9137 58.4964 28.5072 58.4964C29.1006 58.4964 29.5816 58.0153 29.5816 57.4219V56.2306H31.4733V57.4198C31.4733 58.0132 31.9543 58.4943 32.5477 58.4943C33.1412 58.4943 33.6222 58.0132 33.6222 57.4198V56.0488C34.1589 55.9406 34.6573 55.7843 35.1176 55.5797C36.0941 55.1367 36.849 54.4948 37.3824 53.654C37.9248 52.8041 38.1961 51.7644 38.1961 50.5349C38.1961 49.685 38.0198 48.9075 37.6672 48.2023C37.3236 47.4971 36.8218 46.9185 36.1619 46.4665C35.7526 46.1805 35.2877 45.9676 34.7671 45.8277C34.9543 45.7461 35.1344 45.6561 35.3075 45.5578C36.0488 45.142 36.6275 44.6085 37.0433 43.9576C37.4592 43.2976 37.6672 42.5608 37.6672 41.7471C37.6672 40.8249 37.5225 40.0338 37.2332 39.3739C36.9439 38.7139 36.519 38.1714 35.9584 37.7465C35.4069 37.3125 34.7334 36.9961 33.9378 36.7972C33.8339 36.77 33.7281 36.7447 33.6205 36.7211C33.6217 36.701 33.6222 36.6808 33.6222 36.6605V35.0818ZM28.0657 46.9953H27.3741V54.1015H31.673C32.5048 54.1015 33.21 53.9568 33.7886 53.6675C34.3763 53.3782 34.8238 52.9714 35.1312 52.447C35.4386 51.9136 35.5923 51.2853 35.5923 50.562C35.5923 49.8297 35.4612 49.1968 35.199 48.6634C34.9368 48.13 34.5255 47.7186 33.9649 47.4293C33.4044 47.14 32.6811 46.9953 31.7951 46.9953H28.0657ZM27.3741 38.628V44.8933H28.0928H31.3069C32.0573 44.8933 32.7127 44.7668 33.2733 44.5136C33.8338 44.2605 34.2678 43.8988 34.5752 43.4287C34.8916 42.9495 35.0498 42.38 35.0498 41.72C35.0498 40.9967 34.9097 40.409 34.6294 39.957C34.3582 39.4959 33.9378 39.1614 33.3682 38.9535C32.8077 38.7365 32.0934 38.628 31.2255 38.628H27.3741Z" fill="#BBC4C9"/>
</svg>
