<?xml version="1.0" encoding="UTF-8"?>
<svg width="1367px" height="1173px" viewBox="0 0 1367 1173" version="1.1" xmlns="http://www.w3.org/2000/svg" xmlns:xlink="http://www.w3.org/1999/xlink">
    <title>laser</title>
    <defs>
        <linearGradient x1="24.3745418%" y1="14.9152611%" x2="49.633902%" y2="85.8237736%" id="linearGradient-1">
            <stop stop-color="#00AED9" offset="0%"></stop>
            <stop stop-color="#0DAFCF" stop-opacity="0.220607517" offset="18.6817089%"></stop>
            <stop stop-color="#46B4A5" offset="72.4704983%"></stop>
            <stop stop-color="#46B4A5" stop-opacity="0.13557146" offset="100%"></stop>
        </linearGradient>
        <linearGradient x1="24.3745418%" y1="15.7235411%" x2="50%" y2="86.0025079%" id="linearGradient-2">
            <stop stop-color="#00AED9" offset="0%"></stop>
            <stop stop-color="#0DAFCF" stop-opacity="0.220607517" offset="18.6817089%"></stop>
            <stop stop-color="#46B4A5" offset="72.4704983%"></stop>
            <stop stop-color="#46B4A5" stop-opacity="0.13557146" offset="98.5713505%"></stop>
        </linearGradient>
        <linearGradient x1="24.3745418%" y1="16.4534879%" x2="50%" y2="85.2358033%" id="linearGradient-3">
            <stop stop-color="#00AED9" offset="0%"></stop>
            <stop stop-color="#0DAFCF" stop-opacity="0.220607517" offset="18.6817089%"></stop>
            <stop stop-color="#46B4A5" offset="72.4704983%"></stop>
            <stop stop-color="#46B4A5" stop-opacity="0.13557146" offset="98.5713505%"></stop>
        </linearGradient>
        <linearGradient x1="24.3745418%" y1="17.2845173%" x2="50%" y2="84.362926%" id="linearGradient-4">
            <stop stop-color="#00AED9" offset="0%"></stop>
            <stop stop-color="#0DAFCF" stop-opacity="0.220607517" offset="18.6817089%"></stop>
            <stop stop-color="#46B4A5" offset="72.4704983%"></stop>
            <stop stop-color="#46B4A5" stop-opacity="0.13557146" offset="98.5713505%"></stop>
        </linearGradient>
        <linearGradient x1="24.3745418%" y1="18.0739505%" x2="50%" y2="83.5337396%" id="linearGradient-5">
            <stop stop-color="#00AED9" offset="0%"></stop>
            <stop stop-color="#0DAFCF" stop-opacity="0.220607517" offset="18.6817089%"></stop>
            <stop stop-color="#46B4A5" offset="72.4704983%"></stop>
            <stop stop-color="#46B4A5" stop-opacity="0.13557146" offset="98.5713505%"></stop>
        </linearGradient>
        <linearGradient x1="24.3745418%" y1="18.8087018%" x2="50%" y2="82.7619887%" id="linearGradient-6">
            <stop stop-color="#00AED9" offset="0%"></stop>
            <stop stop-color="#0DAFCF" stop-opacity="0.220607517" offset="18.6817089%"></stop>
            <stop stop-color="#46B4A5" offset="72.4704983%"></stop>
            <stop stop-color="#46B4A5" stop-opacity="0.13557146" offset="98.5713505%"></stop>
        </linearGradient>
        <linearGradient x1="24.3745418%" y1="19.5728088%" x2="50%" y2="81.9594037%" id="linearGradient-7">
            <stop stop-color="#00AED9" offset="0%"></stop>
            <stop stop-color="#0DAFCF" stop-opacity="0.220607517" offset="18.6817089%"></stop>
            <stop stop-color="#46B4A5" offset="72.4704983%"></stop>
            <stop stop-color="#46B4A5" stop-opacity="0.13557146" offset="98.5713505%"></stop>
        </linearGradient>
        <linearGradient x1="24.3745418%" y1="20.336134%" x2="50%" y2="81.15764%" id="linearGradient-8">
            <stop stop-color="#00AED9" offset="0%"></stop>
            <stop stop-color="#0DAFCF" stop-opacity="0.220607517" offset="18.6817089%"></stop>
            <stop stop-color="#46B4A5" offset="72.4704983%"></stop>
            <stop stop-color="#46B4A5" stop-opacity="0.13557146" offset="98.5713505%"></stop>
        </linearGradient>
        <linearGradient x1="24.3745418%" y1="20.7846176%" x2="50%" y2="80.6865722%" id="linearGradient-9">
            <stop stop-color="#00AED9" offset="0%"></stop>
            <stop stop-color="#0DAFCF" stop-opacity="0.220607517" offset="18.6817089%"></stop>
            <stop stop-color="#46B4A5" offset="72.4704983%"></stop>
            <stop stop-color="#46B4A5" stop-opacity="0.13557146" offset="98.5713505%"></stop>
        </linearGradient>
        <linearGradient x1="24.3745418%" y1="20.6576969%" x2="50%" y2="80.8198843%" id="linearGradient-10">
            <stop stop-color="#00AED9" offset="0%"></stop>
            <stop stop-color="#0DAFCF" stop-opacity="0.220607517" offset="18.6817089%"></stop>
            <stop stop-color="#46B4A5" offset="72.4704983%"></stop>
            <stop stop-color="#46B4A5" stop-opacity="0.13557146" offset="98.5713505%"></stop>
        </linearGradient>
        <linearGradient x1="24.3745418%" y1="20.2418197%" x2="50%" y2="81.2567036%" id="linearGradient-11">
            <stop stop-color="#00AED9" offset="0%"></stop>
            <stop stop-color="#0DAFCF" stop-opacity="0.220607517" offset="18.6817089%"></stop>
            <stop stop-color="#46B4A5" offset="72.4704983%"></stop>
            <stop stop-color="#46B4A5" stop-opacity="0.13557146" offset="98.5713505%"></stop>
        </linearGradient>
        <linearGradient x1="24.3745418%" y1="18.2943495%" x2="50%" y2="83.302242%" id="linearGradient-12">
            <stop stop-color="#00AED9" offset="0%"></stop>
            <stop stop-color="#0DAFCF" stop-opacity="0.220607517" offset="18.6817089%"></stop>
            <stop stop-color="#46B4A5" offset="72.4704983%"></stop>
            <stop stop-color="#46B4A5" stop-opacity="0.13557146" offset="98.5713505%"></stop>
        </linearGradient>
        <linearGradient x1="24.3745418%" y1="15.7627223%" x2="50%" y2="85.9613536%" id="linearGradient-13">
            <stop stop-color="#00AED9" offset="0%"></stop>
            <stop stop-color="#0DAFCF" stop-opacity="0.220607517" offset="18.6817089%"></stop>
            <stop stop-color="#46B4A5" offset="72.4704983%"></stop>
            <stop stop-color="#46B4A5" stop-opacity="0.13557146" offset="98.5713505%"></stop>
        </linearGradient>
        <linearGradient x1="24.3745418%" y1="13.4253769%" x2="50%" y2="88.4163999%" id="linearGradient-14">
            <stop stop-color="#00AED9" offset="0%"></stop>
            <stop stop-color="#0DAFCF" stop-opacity="0.220607517" offset="18.6817089%"></stop>
            <stop stop-color="#46B4A5" offset="72.4704983%"></stop>
            <stop stop-color="#46B4A5" stop-opacity="0.13557146" offset="98.5713505%"></stop>
        </linearGradient>
        <linearGradient x1="24.3745418%" y1="11.3955887%" x2="50%" y2="90.5484015%" id="linearGradient-15">
            <stop stop-color="#00AED9" offset="0%"></stop>
            <stop stop-color="#0DAFCF" stop-opacity="0.220607517" offset="18.6817089%"></stop>
            <stop stop-color="#46B4A5" offset="72.4704983%"></stop>
            <stop stop-color="#46B4A5" stop-opacity="0.13557146" offset="98.5713505%"></stop>
        </linearGradient>
        <linearGradient x1="24.3745418%" y1="9.10224096%" x2="50%" y2="92.9572347%" id="linearGradient-16">
            <stop stop-color="#00AED9" offset="0%"></stop>
            <stop stop-color="#0DAFCF" stop-opacity="0.220607517" offset="18.6817089%"></stop>
            <stop stop-color="#46B4A5" offset="72.4704983%"></stop>
            <stop stop-color="#46B4A5" stop-opacity="0.13557146" offset="98.5713505%"></stop>
        </linearGradient>
        <linearGradient x1="24.3745418%" y1="6.56029162%" x2="50%" y2="95.6271882%" id="linearGradient-17">
            <stop stop-color="#00AED9" offset="0%"></stop>
            <stop stop-color="#0DAFCF" stop-opacity="0.220607517" offset="18.6817089%"></stop>
            <stop stop-color="#46B4A5" offset="72.4704983%"></stop>
            <stop stop-color="#46B4A5" stop-opacity="0.13557146" offset="98.5713505%"></stop>
        </linearGradient>
        <linearGradient x1="24.3745418%" y1="4.04131195%" x2="50%" y2="98.2730153%" id="linearGradient-18">
            <stop stop-color="#00AED9" offset="0%"></stop>
            <stop stop-color="#0DAFCF" stop-opacity="0.220607517" offset="18.6817089%"></stop>
            <stop stop-color="#46B4A5" offset="72.4704983%"></stop>
            <stop stop-color="#46B4A5" stop-opacity="0.13557146" offset="98.5713505%"></stop>
        </linearGradient>
        <linearGradient x1="24.7598815%" y1="2.39712319%" x2="50%" y2="100%" id="linearGradient-19">
            <stop stop-color="#00AED9" offset="0%"></stop>
            <stop stop-color="#0DAFCF" stop-opacity="0.220607517" offset="18.6817089%"></stop>
            <stop stop-color="#46B4A5" offset="72.4704983%"></stop>
            <stop stop-color="#46B4A5" stop-opacity="0.13557146" offset="98.5713505%"></stop>
        </linearGradient>
        <linearGradient x1="26.1935067%" y1="2.39712319%" x2="50%" y2="100%" id="linearGradient-20">
            <stop stop-color="#00AED9" offset="0%"></stop>
            <stop stop-color="#0DAFCF" stop-opacity="0.220607517" offset="18.6817089%"></stop>
            <stop stop-color="#46B4A5" offset="72.4704983%"></stop>
            <stop stop-color="#46B4A5" stop-opacity="0.13557146" offset="98.5713505%"></stop>
        </linearGradient>
        <linearGradient x1="27.3491092%" y1="2.39712319%" x2="50%" y2="100%" id="linearGradient-21">
            <stop stop-color="#00AED9" offset="0%"></stop>
            <stop stop-color="#0DAFCF" stop-opacity="0.220607517" offset="18.6817089%"></stop>
            <stop stop-color="#46B4A5" offset="72.4704983%"></stop>
            <stop stop-color="#46B4A5" stop-opacity="0.13557146" offset="98.5713505%"></stop>
        </linearGradient>
        <linearGradient x1="28.6280868%" y1="2.39712319%" x2="50%" y2="100%" id="linearGradient-22">
            <stop stop-color="#00AED9" offset="0%"></stop>
            <stop stop-color="#0DAFCF" stop-opacity="0.220607517" offset="18.6817089%"></stop>
            <stop stop-color="#46B4A5" offset="72.4704983%"></stop>
            <stop stop-color="#46B4A5" stop-opacity="0.13557146" offset="98.5713505%"></stop>
        </linearGradient>
    </defs>
    <g id="AMP" stroke="none" stroke-width="1" fill="none" fill-rule="evenodd" opacity="0.573567708">
        <g transform="translate(-113.000000, 25.000000)" id="laser" stroke-width="2">
            <g transform="translate(114.000000, -24.000000)">
                <path d="M201.365941,1168.12041 C197.985514,1166.8629 195.144163,1165.01603 192.636934,1162.9371 C192.101812,1162.47761 191.307697,1162.3362 190.777518,1161.85297 C190.766315,1161.80254 190.727433,1161.72244 190.699754,1161.69343 C190.611775,1161.67761 190.600572,1161.62718 190.578165,1161.57444 L7.41465639,982.227377 C6.99486268,981.812382 6.83603963,981.152149 6.43799347,980.692326 C5.98920302,980.101973 5.13709428,979.780262 4.73113992,979.144421 C3.76732783,977.854939 3.46088501,976.268798 2.81669608,974.836919 C2.14186286,973.37966 1.26405246,972.003817 0.866335812,970.450308 C0.26696002,968.155149 0.185900951,965.632222 0.178322258,963.07798 C0.110773035,961.461183 -0.139982863,959.905037 0.1055009,958.198254 C0.477186383,955.297909 1.47493784,952.26176 2.55638443,949.191989 C3.08689297,947.657268 3.28822261,946.112659 4.00160831,944.53344 C6.10057686,939.845224 8.88261635,935.084162 12.5296154,930.281898 L321.590049,523.359109 L591.370115,168.15502 C594.805569,163.631616 598.783065,159.36235 603.164868,155.299098 C604.701695,153.882382 606.52882,152.66344 608.161863,151.284301 C611.156765,148.850371 614.074562,146.325795 617.375577,144.128534 C619.49168,142.725992 621.704,141.660324 623.826693,140.380401 C626.949444,138.548691 630.060663,136.633916 633.32642,135.09524 C635.655056,134.01408 638.021915,133.243423 640.407556,132.338281 C643.118092,131.251846 645.850046,129.902044 648.594851,129.109632 L1063.3685,3.51899098 C1064.96233,3.06114586 1066.44216,2.97148864 1068.05576,2.58550114 C1069.35995,2.24631999 1070.78475,1.55147656 1072.12782,1.29173434 C1073.53515,1.01913684 1074.6601,1.19482543 1076.00317,0.935412827 C1079.29859,0.45152756 1082.43979,0.15882312 1085.56089,0.0411480242 C1088.01244,-0.021480178 1090.37205,-0.0274133761 1092.62358,0.129486752 C1095.44483,0.351652058 1098.05552,0.840152035 1100.61745,1.4417124 C1102.66139,1.987237 1104.67699,2.51562126 1106.53213,3.2226607 C1108.77245,4.14362489 1110.59694,5.37146728 1112.48206,6.61875737 C1114.05085,7.72430995 1115.67302,8.75437906 1116.93141,10.0883598 C1117.37888,10.5326904 1118.06327,10.8122099 1118.53249,11.260496 C1119.58923,12.493942 1119.93191,14.0988721 1120.65519,15.507677 C1121.34386,16.6514657 1122.37061,17.4540956 1122.81874,18.7010561 L1362.1374,663.741213 C1366.2556,674.863653 1363.70059,689.98276 1352.9138,703.589561 C1352.78331,703.760964 1352.7385,703.951156 1352.65151,704.065535 C1352.11507,704.83751 1351.56183,705.565975 1350.97629,706.336961 L1350.96014,706.358387 C1350.96014,706.358387 1350.92785,706.401237 1350.8949,706.444088 C1347.41068,711.032099 1343.11323,715.377837 1338.63884,719.497783 C1337.24535,720.708815 1335.94708,721.79492 1334.46594,722.990459 C1330.8977,725.983099 1326.99928,728.819826 1322.95028,731.455155 C1321.60918,732.335246 1320.21899,733.279284 1318.8222,734.12905 C1313.68352,737.182669 1308.34021,739.952813 1302.74351,742.1715 L252.987387,1164.20515 C251.635414,1164.73881 250.330231,1164.94845 248.992757,1165.39146 C247.233511,1166.05137 245.495354,1166.96178 243.687012,1167.4671 C241.861206,1168.01756 240.174453,1168.15535 238.358532,1168.5621 C235.971243,1169.16267 233.60735,1169.71083 231.256308,1170.05067 C227.813604,1170.58137 224.5719,1170.78738 221.394121,1170.90275 C219.253634,1170.9601 217.169494,1171.08008 215.198374,1170.91989 C211.904608,1170.7231 209.046452,1170.06913 206.201806,1169.32056 C204.521314,1168.87557 202.797985,1168.66263 201.365941,1168.12041 Z" id="Stroke-1" stroke="url(#linearGradient-1)"></path>
                <path d="M272.307375,1116.615 C269.261304,1115.30867 266.719122,1113.47393 264.48705,1111.43482 C264.010514,1110.98487 263.291756,1110.82203 262.820823,1110.35 C262.811925,1110.30253 262.777981,1110.22606 262.753923,1110.19771 C262.674171,1110.17991 262.664944,1110.13211 262.646159,1110.08234 L100.219678,935.500592 C99.8476115,935.096463 99.7187558,934.473786 99.3671212,934.029112 C98.9729742,933.460495 98.205442,933.126577 97.8511711,932.517746 C97.0045459,931.276019 96.7629825,929.783442 96.2103198,928.421729 C95.6312927,927.035294 94.8650788,925.716763 94.5398086,924.250886 C94.0491021,922.085199 94.0349313,919.727006 94.0886487,917.342772 C94.0655799,915.831076 93.8741088,914.368496 94.1380818,912.78527 C94.5450815,910.09283 95.5248467,907.297873 96.5817276,904.474899 C97.1011053,903.063081 97.3209181,901.629509 98.0073798,900.18308 C100.028537,895.889614 102.672881,891.554284 106.10552,887.215328 L396.99197,519.5123 L650.907361,198.543615 C654.141278,194.456169 657.861617,190.627485 661.945455,187.006139 C663.377369,185.744305 665.068972,184.677943 666.587558,183.454676 C669.370645,181.300196 672.085844,179.058364 675.141472,177.136935 C677.100673,175.910371 679.139296,175.002892 681.100804,173.891041 C683.986053,172.304189 686.862733,170.638884 689.871235,169.330572 C692.015645,168.412545 694.187409,167.786242 696.380263,167.03468 C698.872354,166.126871 701.390479,164.974145 703.906956,164.34191 L1084.32312,63.377046 C1085.78436,63.0121426 1087.13323,62.9867609 1088.61062,62.6897618 C1089.80558,62.4240778 1091.11886,61.8313981 1092.34711,61.6415296 C1093.63402,61.4421018 1094.65333,61.6504297 1095.88224,61.4608909 C1098.89206,61.1381804 1101.75786,60.9881975 1104.6006,61 C1106.833,61.0386313 1108.98005,61.1253247 1111.02559,61.3603529 C1113.58722,61.6781188 1115.95144,62.2365167 1118.26854,62.8980897 C1120.11569,63.4878027 1121.93713,64.0603747 1123.60863,64.7924891 C1125.62584,65.7398536 1127.2568,66.9581763 1128.9428,68.1959473 C1130.34407,69.2893391 1131.79575,70.3141673 1132.90899,71.6086351 C1133.30577,72.0411133 1133.92204,72.3288827 1134.3386,72.7656461 C1135.27058,73.9582574 1135.54444,75.4696236 1136.1696,76.8132067 C1136.76906,77.907917 1137.6839,78.6970578 1138.06256,79.8784616 L1340.55165,691.336668 C1344.0357,701.879642 1341.35247,715.891671 1331.21373,728.169173 C1331.09113,728.3241 1331.04565,728.500124 1330.96425,728.603299 C1330.45773,729.30278 1329.9367,729.961057 1329.38569,730.6579 L1329.37053,730.677019 C1329.37053,730.677019 1329.33988,730.715916 1329.3089,730.754483 C1326.02951,734.900274 1322.01586,738.788292 1317.84634,742.458423 C1316.54987,743.534015 1315.34272,744.496872 1313.96683,745.554664 C1310.64821,748.208207 1307.03366,750.702868 1303.28663,753.004034 C1302.04553,753.772738 1300.75829,754.599786 1299.46676,755.338164 C1294.71821,757.986763 1289.79039,760.363085 1284.64505,762.214303 L319.375321,1114.98431 C318.132242,1115.42931 316.939585,1115.57402 315.711995,1115.93497 C314.09553,1116.48183 312.492248,1117.26372 310.834919,1117.66455 C309.160124,1118.10659 307.622094,1118.16922 305.959492,1118.47743 C303.772898,1118.94452 301.608715,1119.36381 299.461338,1119.58862 C296.316071,1119.94891 293.361287,1120.01417 290.46714,1120 C288.517826,1119.96704 286.618604,1120 284.828135,1119.77025 C281.836111,1119.45775 279.250097,1118.7352 276.679573,1117.92463 C275.160657,1117.4437 273.597581,1117.17702 272.307375,1116.615 Z" id="Stroke-3" stroke="url(#linearGradient-2)"></path>
                <path d="M338.415081,1071.01605 C335.676056,1069.677 333.408028,1067.86379 331.42622,1065.87319 C331.00397,1065.43398 330.353798,1065.25362 329.937147,1064.79496 C329.929572,1064.74978 329.900917,1064.67757 329.879508,1064.64987 C329.807706,1064.63009 329.80046,1064.58524 329.784321,1064.53809 L186.217732,895.17072 C185.888693,894.779326 185.786589,894.192728 185.477313,893.763414 C185.132464,893.217374 184.442438,892.87577 184.134479,892.293129 C183.39406,891.10048 183.209614,889.69746 182.739935,888.404902 C182.245883,887.087284 181.58023,885.82605 181.319371,884.444793 C180.924129,882.403737 180.967276,880.201772 181.072345,877.977384 C181.087166,876.565132 180.947843,875.192118 181.225501,873.724141 C181.658949,871.226404 182.616751,868.655465 183.644709,866.061116 C184.14996,864.763281 184.383811,863.433463 185.042547,862.109909 C186.982195,858.180465 189.489345,854.236513 192.713529,850.320259 L465.940457,518.419589 L704.441126,228.702819 C707.478228,225.013421 710.952402,221.584514 714.751663,218.363669 C716.083956,217.241584 717.647137,216.312392 719.057162,215.229875 C721.638748,213.327637 724.161049,211.340658 726.98505,209.666597 C728.795587,208.598588 730.671338,207.830966 732.481544,206.87012 C735.142509,205.501064 737.797544,204.059135 740.564236,202.955844 C742.536162,202.182947 744.526204,201.68307 746.537984,201.067786 C748.825445,200.31797 751.142549,199.340308 753.44582,198.848344 L1101.76833,119.49877 C1103.10557,119.215199 1104.33279,119.244215 1105.68353,119.024942 C1106.77637,118.823804 1107.9845,118.321948 1109.10599,118.192693 C1110.28118,118.057172 1111.20308,118.291613 1112.32491,118.162687 C1115.06953,117.979684 1117.67911,117.951986 1120.26367,118.074977 C1122.2929,118.197968 1124.24342,118.363165 1126.09776,118.662894 C1128.42014,119.059894 1130.55642,119.673859 1132.64823,120.382788 C1134.31352,121.005326 1135.95641,121.611048 1137.45898,122.360534 C1139.27051,123.324348 1140.725,124.52524 1142.22889,125.746906 C1143.47753,126.822829 1144.77293,127.836762 1145.75511,129.089093 C1146.10522,129.508185 1146.65889,129.800989 1147.02712,130.225027 C1147.84659,131.37547 1148.05969,132.796955 1148.59656,134.076324 C1149.11565,135.121582 1149.92919,135.894479 1150.24538,137.011949 L1319.89462,715.840096 C1322.81282,725.820165 1320.04086,738.797189 1310.53069,749.862413 C1310.41541,750.00255 1310.36996,750.165109 1310.29322,750.258424 C1309.81629,750.891514 1309.32718,751.485365 1308.80908,752.114498 L1308.79525,752.131974 C1308.79525,752.131974 1308.76627,752.166926 1308.73761,752.201878 C1305.65703,755.943703 1301.91508,759.416465 1298.03644,762.679845 C1296.83194,763.633107 1295.71176,764.484811 1294.43513,765.418618 C1291.35488,767.765667 1288.00883,769.953125 1284.54685,771.954612 C1283.40031,772.623973 1282.21031,773.345431 1281.01833,773.984457 C1276.6374,776.270834 1272.0997,778.296392 1267.37722,779.823062 L381.254664,1071.33886 C380.114063,1071.70586 379.02616,1071.7939 377.901368,1072.08274 C376.418224,1072.53019 374.941667,1073.19725 373.425257,1073.50654 C371.892048,1073.85375 370.491575,1073.8521 368.97253,1074.07434 C366.973266,1074.42485 364.995411,1074.7315 363.037318,1074.8568 C360.168522,1075.07014 357.479891,1075.01507 354.84857,1074.88614 C353.076899,1074.78129 351.349034,1074.7348 349.726238,1074.45287 C347.012904,1074.044 344.678673,1073.26781 342.359922,1072.4105 C340.99008,1071.90172 339.574786,1071.59144 338.415081,1071.01605 Z" id="Stroke-5" stroke="url(#linearGradient-3)"></path>
                <path d="M399.729493,1030.42833 C397.268723,1029.07222 395.248328,1027.29241 393.492093,1025.35808 C393.118251,1024.93207 392.531302,1024.73834 392.162401,1024.29421 C392.157131,1024.25204 392.132757,1024.18351 392.113653,1024.15682 C392.048766,1024.1354 392.043167,1024.09323 392.029662,1024.04842 L265.411131,860.465274 C265.12128,860.08671 265.0419,859.535832 264.771153,859.123662 C264.470103,858.600789 263.850217,858.255172 263.583751,857.699681 C262.938174,856.558388 262.803788,855.242804 262.40689,854.018484 C261.988582,852.770441 261.412832,851.568196 261.20796,850.269415 C260.897028,848.350566 260.988266,846.298611 261.136814,844.228205 C261.183586,842.911633 261.089384,841.62603 261.3766,840.267615 C261.830481,837.955047 262.762287,835.594705 263.759309,833.215913 C264.25008,832.025199 264.494148,830.79396 265.124903,829.585784 C266.982915,825.997168 269.357389,822.417119 272.383699,818.890773 L528.84865,520.064061 L752.717527,259.216973 C755.568279,255.894901 758.81066,252.833441 762.343551,249.978561 C763.582336,248.984213 765.02698,248.178982 766.335263,247.2245 C768.7295,245.551438 771.071366,243.797655 773.680686,242.346987 C775.353259,241.421828 777.078203,240.779357 778.747811,239.954357 C781.201665,238.781764 783.651896,237.5413 786.195011,236.620753 C788.007569,235.976964 789.830008,235.588845 791.674845,235.093977 C793.77429,234.484124 795.906014,233.663078 798.013035,233.295057 L1116.82564,172.946218 C1118.04927,172.734367 1119.16487,172.809158 1120.39904,172.6576 C1121.39837,172.512962 1122.50935,172.091896 1123.53306,172.015788 C1124.60551,171.935726 1125.43883,172.190079 1126.46253,172.113971 C1128.96414,172.050712 1131.33895,172.127479 1133.68806,172.343283 C1135.53158,172.537343 1137.30231,172.767974 1138.98213,173.12018 C1141.08585,173.581771 1143.01534,174.23808 1144.90168,174.981041 C1146.40265,175.627137 1147.88286,176.25643 1149.23232,177.014217 C1150.85779,177.984184 1152.1529,179.16106 1153.49214,180.359352 C1154.60247,181.411688 1155.75759,182.408342 1156.62122,183.614541 C1156.93017,184.019463 1157.42687,184.314341 1157.7523,184.724205 C1158.47034,185.828927 1158.63074,187.163291 1159.08858,188.377068 C1159.53653,189.372405 1160.25819,190.12525 1160.51939,191.179891 L1301.17363,737.657984 C1303.5929,747.080242 1300.76356,759.074033 1291.84833,769.02147 C1291.74029,769.147328 1291.69484,769.296909 1291.62271,769.380925 C1291.17377,769.952559 1290.71462,770.487623 1290.22879,771.053986 L1290.21528,771.069801 C1290.21528,771.069801 1290.18827,771.100772 1290.16126,771.132401 C1287.26934,774.501588 1283.78256,777.593359 1280.17655,780.48481 C1279.05799,781.326942 1278.01847,782.077481 1276.8347,782.898197 C1273.97637,784.966297 1270.88023,786.875261 1267.68297,788.605981 C1266.6237,789.185193 1265.52358,789.811521 1264.42379,790.360422 C1260.38333,792.321773 1256.20717,794.032724 1251.8739,795.271211 L438.700975,1032.40912 C437.654217,1032.70663 436.662135,1032.74584 435.631846,1032.97153 C434.271851,1033.33033 432.912844,1033.89471 431.525511,1034.1237 C430.122038,1034.3876 428.84801,1034.3306 427.460677,1034.47887 C425.633297,1034.72729 423.826339,1034.93552 422.041448,1034.97604 C419.4262,1035.06203 416.981568,1034.90553 414.589967,1034.68215 C412.980304,1034.51445 411.409508,1034.40342 409.939831,1034.07724 C407.480378,1033.58929 405.375004,1032.77385 403.28577,1031.88328 C402.051597,1031.35514 400.770981,1031.01084 399.729493,1030.42833 Z" id="Stroke-7" stroke="url(#linearGradient-4)"></path>
                <path d="M455.942073,995.875595 C453.734707,994.513164 451.937576,992.772811 450.38494,990.898686 C450.054774,990.486168 449.524597,990.282215 449.200033,989.853222 C449.195749,989.813684 449.17532,989.748445 449.158845,989.723075 C449.100192,989.70067 449.096238,989.661131 449.084706,989.618627 L337.712042,831.965127 C337.457333,831.601044 337.398022,831.084078 337.161436,830.688034 C336.899808,830.188201 336.3436,829.841251 336.114593,829.312753 C335.554102,828.22215 335.462828,826.988548 335.130685,825.8304 C334.779101,824.649187 334.283853,823.504548 334.128325,822.284456 C333.890751,820.480841 334.022224,818.568825 334.206748,816.642312 C334.280228,815.415301 334.224871,814.211683 334.518791,812.955018 C334.986691,810.814008 335.890858,808.647628 336.854665,806.466091 C337.329155,805.37417 337.580898,804.234472 338.183566,803.131348 C339.959938,799.854266 342.206186,796.606178 345.044558,793.433214 L585.569088,524.560226 L795.524276,289.860032 C798.198225,286.871251 801.22145,284.140459 804.505316,281.614608 C805.656283,280.734876 806.990457,280.039987 808.20436,279.200453 C810.42293,277.732916 812.596357,276.18729 815.005711,274.935896 C816.55011,274.137548 818.135038,273.605426 819.674494,272.900982 C821.9359,271.902635 824.195328,270.841026 826.532191,270.081228 C828.197189,269.551741 829.865483,269.260804 831.556512,268.870691 C833.481821,268.384367 835.441398,267.70134 837.368354,267.440386 L1128.98951,223.608336 C1130.10819,223.45809 1131.12208,223.572422 1132.24867,223.479507 C1133.16173,223.383296 1134.1832,223.03404 1135.11669,223 C1136.09434,222.970119 1136.84726,223.240299 1137.78076,223.208998 C1140.05963,223.248207 1142.21922,223.412621 1144.35211,223.706524 C1146.02568,223.960229 1147.63169,224.244906 1149.1527,224.639303 C1151.05659,225.152644 1152.79737,225.840944 1154.49664,226.60832 C1155.84729,227.27026 1157.18015,227.915726 1158.39009,228.675854 C1159.84684,229.644877 1160.99748,230.794458 1162.18832,231.965457 C1163.1742,232.991151 1164.20161,233.966434 1164.95947,235.12623 C1165.23099,235.516014 1165.67615,235.810905 1165.96249,236.20629 C1166.58987,237.265593 1166.70421,238.517316 1167.09237,239.668215 C1167.47625,240.614833 1168.11549,241.345636 1168.32835,242.340688 L1283.39874,757.940163 C1285.3771,766.829736 1282.51731,777.913694 1274.16662,786.849065 C1274.06546,786.96208 1274.02032,787.100464 1273.95277,787.175917 C1273.53067,787.691894 1273.1,788.173276 1272.64463,788.682663 L1272.63177,788.696831 C1272.63177,788.696831 1272.6064,788.725167 1272.58103,788.753503 C1269.86952,791.784788 1266.6219,794.534361 1263.27114,797.091843 C1262.23287,797.833849 1261.26873,798.493483 1260.17213,799.213083 C1257.52158,801.031854 1254.65783,802.692142 1251.70677,804.182413 C1250.72846,804.681587 1249.71259,805.222935 1248.6987,805.692125 C1244.97462,807.364274 1241.13256,808.797545 1237.15871,809.78403 L491.368016,999.252182 C490.408162,999.488754 489.503996,999.486448 488.560947,999.656793 C487.314752,999.938175 486.064273,1000.41198 484.796001,1000.57112 C483.512572,1000.76222 482.354026,1000.65942 481.087731,1000.74311 C479.418449,1000.90357 477.768608,1001.02713 476.14348,1001 C473.760816,1000.9731 471.539281,1000.73059 469.367831,1000.42845 C467.906797,1000.20901 466.479373,1000.04394 465.149154,999.681834 C462.922347,999.129943 461.025376,998.286125 459.14455,997.373115 C458.033783,996.831767 456.876555,996.459776 455.942073,995.875595 Z" id="Stroke-9" stroke="url(#linearGradient-5)"></path>
                <path d="M507.824666,966.375007 C505.847659,965.015981 504.253329,963.31926 502.885114,961.507446 C502.594067,961.109401 502.11679,960.898342 501.831017,960.484467 C501.82871,960.447202 501.811241,960.385863 501.796738,960.361459 C501.744,960.338044 501.741363,960.300779 501.732134,960.260876 L404.104941,808.614273 C403.881465,808.264046 403.839934,807.778279 403.633597,807.399691 C403.407484,806.922169 402.909442,806.576559 402.713323,806.073314 C402.229454,805.032526 402.175727,803.876646 401.900502,802.781774 C401.608796,801.664478 401.185246,800.575543 401.072519,799.429555 C400.899144,797.735473 401.064279,795.954658 401.277537,794.162301 C401.373784,793.018622 401.352029,791.891762 401.649338,790.729615 C402.125627,788.747964 403.000415,786.759718 403.928929,784.759269 C404.387089,783.757726 404.643196,782.703087 405.217709,781.695938 C406.912239,778.704499 409.033617,775.75791 411.69226,772.905308 L636.98246,531.15937 L833.638681,320.138752 C836.143066,317.4517 838.959923,315.019239 842.008497,312.787944 C843.076766,312.011641 844.307534,311.414408 845.432167,310.678008 C847.486304,309.393843 849.501217,308.035477 851.723785,306.960393 C853.148034,306.275439 854.603268,305.840788 856.021255,305.242566 C858.103079,304.399317 860.184903,303.495389 862.330012,302.87738 C863.857759,302.448336 865.38287,302.241893 866.931054,301.944101 C868.694803,301.564854 870.494809,301.003897 872.254603,300.835709 L1138.71323,271.325629 C1139.73536,271.229333 1140.6553,271.375426 1141.68303,271.332884 C1142.51596,271.2788 1143.45403,270.99288 1144.30443,271 C1145.19537,271.00805 1145.87404,271.290013 1146.7241,271.297598 C1148.79736,271.423574 1150.7592,271.662005 1152.69336,272.020147 C1154.21056,272.322556 1155.66579,272.651347 1157.0406,273.079732 C1158.76117,273.633763 1160.32913,274.34477 1161.85754,275.128658 C1163.07117,275.799761 1164.26864,276.455035 1165.35241,277.212541 C1166.65503,278.17517 1167.67518,279.294116 1168.73092,280.434827 C1169.60406,281.431753 1170.51642,282.38317 1171.17795,283.496509 C1171.41626,283.871469 1171.81443,284.163985 1172.0656,284.544881 C1172.61176,285.558956 1172.68592,286.732645 1173.01191,287.823229 C1173.33888,288.72287 1173.90318,289.43025 1174.07326,290.368146 L1266.5773,776.551032 C1268.16702,784.933063 1265.30171,795.175716 1257.48927,803.195319 C1257.39434,803.296891 1257.35017,803.424517 1257.28688,803.492122 C1256.89003,803.957772 1256.48725,804.390773 1256.06007,804.848509 L1256.04821,804.86137 C1256.04821,804.86137 1256.02447,804.886763 1256.00074,804.912486 C1253.46076,807.637792 1250.4402,810.079158 1247.32933,812.336505 C1246.36687,812.989141 1245.47395,813.567576 1244.45875,814.196797 C1242.00315,815.791616 1239.35736,817.230448 1236.63609,818.507029 C1235.73394,818.934754 1234.79653,819.400734 1233.86241,819.799438 C1230.43346,821.215516 1226.90267,822.404045 1223.26245,823.169465 L539.987461,970.918723 C539.108059,971.102081 538.285679,971.064815 537.423416,971.186834 C536.282303,971.400862 535.132949,971.79429 533.974695,971.892894 C532.801939,972.021509 531.75015,971.879703 530.595522,971.908394 C529.072389,971.992818 527.568044,972.043274 526.089408,971.949617 C523.921556,971.835842 521.905324,971.522221 519.936227,971.154845 C518.61152,970.89267 517.316148,970.6826 516.114386,970.29181 C514.100462,969.688971 512.393736,968.826595 510.703819,967.899582 C509.705757,967.350497 508.661219,966.957729 507.824666,966.375007 Z" id="Stroke-11" stroke="url(#linearGradient-6)"></path>
                <path d="M556.168129,939.808861 C554.402531,938.463296 552.992424,936.818094 551.790869,935.074002 C551.535864,934.691297 551.106901,934.475387 550.856838,934.078179 C550.855191,934.043567 550.841024,933.985552 550.828504,933.962148 C550.780732,933.938084 550.779414,933.903473 550.771836,933.865895 L465.575716,788.561037 C465.381003,788.2258 465.354646,787.771235 465.176076,787.409627 C464.982022,786.955391 464.537245,786.613231 464.370536,786.136251 C463.954753,785.146361 463.933667,784.065492 463.709302,783.033409 C463.47044,781.97957 463.110995,780.946828 463.035548,779.87354 C462.917929,778.286354 463.110336,776.631592 463.346891,774.967601 C463.461215,773.904203 463.468464,772.852342 463.76597,771.779713 C464.246328,769.949257 465.088768,768.12869 465.980957,766.298893 C466.42145,765.382512 466.679091,764.408774 467.225672,763.491732 C468.837411,760.76731 470.836599,758.101232 473.322076,755.543934 L683.938917,538.837113 L867.78713,349.673169 C870.128302,347.264206 872.747871,345.105105 875.573026,343.143125 C876.563395,342.460783 877.696422,341.952158 878.73654,341.309043 C880.635241,340.191255 882.499679,339.002925 884.546639,338.087202 C885.858565,337.50408 887.191906,337.155328 888.495925,336.653296 C890.409123,335.94755 892.323639,335.186096 894.289222,334.693623 C895.689115,334.352782 897.080771,334.220269 898.49582,334.00337 C900.109205,333.718567 901.759161,333.26565 903.363652,333.177967 L1146.39515,316.089095 C1147.32687,316.039321 1148.16009,316.211719 1149.09576,316.212378 C1149.85485,316.194578 1150.71442,315.964494 1151.48767,316 C1152.29783,316.046902 1152.90799,316.33665 1153.68158,316.376866 C1155.5638,316.575305 1157.34225,316.874942 1159.09302,317.285006 C1160.46557,317.626507 1161.78112,317.990093 1163.02155,318.443669 C1164.57333,319.02811 1165.98245,319.752974 1167.35368,320.543766 C1168.44157,321.217867 1169.51529,321.876145 1170.4826,322.625403 C1171.64462,323.574418 1172.54603,324.658254 1173.4794,325.763845 C1174.24969,326.728024 1175.05688,327.651658 1175.63245,328.716045 C1175.84001,329.075016 1176.19517,329.363775 1176.4146,329.72901 C1176.88705,330.696485 1176.92691,331.794495 1177.1974,332.8246 C1177.4735,333.676373 1177.97033,334.359045 1178.10244,335.240486 L1250.71633,792.448737 C1251.96368,800.331269 1249.11513,809.774946 1241.81981,816.950413 C1241.73151,817.041721 1241.68835,817.158741 1241.62905,817.219724 C1241.25741,817.638358 1240.88051,818.026337 1240.4812,818.437061 L1240.47032,818.448269 L1240.42585,818.494088 C1238.0514,820.937333 1235.24634,823.096434 1232.36386,825.080499 C1231.47332,825.652084 1230.64702,826.156424 1229.70904,826.703945 C1227.43804,828.095659 1224.9977,829.334423 1222.49246,830.418588 C1221.66221,830.782174 1220.79835,831.180042 1219.93944,831.515609 C1216.78746,832.701961 1213.54817,833.672403 1210.21926,834.243987 L585.311205,945.30847 C584.507312,945.444939 583.760088,945.378023 582.972669,945.457794 C581.929915,945.612722 580.8753,945.934774 579.819697,945.981912 C578.750257,946.05542 577.796788,945.882363 576.746456,945.863574 C575.359083,945.882692 573.98983,945.870825 572.647264,945.725457 C570.678057,945.534269 568.851837,945.162772 567.069766,944.742819 C565.871176,944.446148 564.698284,944.198923 563.614676,943.78754 C561.797352,943.146403 560.265674,942.274521 558.750798,941.343636 C557.855644,940.792159 556.915353,940.385061 556.168129,939.808861 Z" id="Stroke-13" stroke="url(#linearGradient-7)"></path>
                <path d="M601.009295,917.305096 C599.433852,915.978952 598.189058,914.387645 597.136455,912.711578 C596.913276,912.344175 596.527904,912.126174 596.309669,911.74558 C596.30901,911.712929 596.297472,911.658182 596.286922,911.635755 C596.244067,911.61135 596.243407,911.579029 596.237474,911.54341 L522.119466,772.509335 C521.950351,772.188106 521.937165,771.762658 521.783214,771.418012 C521.616736,770.986298 521.220155,770.649238 521.08005,770.197405 C520.725007,769.256803 520.73094,768.246611 520.551606,767.274017 C520.359085,766.280316 520.056127,765.302116 520.013272,764.296871 C519.943714,762.809782 520.157992,761.271903 520.412819,759.727099 C520.542046,758.739004 520.573363,757.756846 520.869727,756.766773 C521.3507,755.076524 522.160674,753.409362 523.01614,751.735604 C523.438764,750.89724 523.696887,749.997533 524.216101,749.162798 C525.747699,746.681678 527.631044,744.270806 529.954484,741.980313 L726.838023,547.87151 L898.698756,378.43341 C900.887366,376.275498 903.32322,374.361972 905.942035,372.640722 C906.859478,372.042127 907.903509,371.611402 908.865456,371.051723 C910.620893,370.082758 912.346331,369.045852 914.231653,368.271141 C915.439526,367.778083 916.661903,367.504675 917.860875,367.087142 C919.619608,366.503058 921.38032,365.867195 923.18125,365.484292 C924.463955,365.220778 925.734133,365.151519 927.027717,365.004426 C928.503273,364.801926 930.01608,364.443759 931.47878,364.42463 L1153.14052,358 C1153.98972,357.990472 1154.74431,358.184067 1155.59615,358.221335 C1156.28778,358.234527 1157.07566,358.053135 1157.77883,358.121404 C1158.51496,358.192312 1159.06384,358.486498 1159.767,358.554768 C1161.47596,358.814324 1163.08799,359.163587 1164.67234,359.615089 C1165.91383,359.987769 1167.10292,360.379247 1168.22145,360.851197 C1169.6202,361.457708 1170.88576,362.190204 1172.11539,362.982724 C1173.08986,363.654536 1174.05181,364.311837 1174.91453,365.04928 C1175.95032,365.980978 1176.74513,367.028437 1177.56829,368.097664 C1178.24706,369.028042 1178.95978,369.922143 1179.45888,370.93893 C1179.63888,371.282257 1179.95535,371.566219 1180.14688,371.915152 C1180.55401,372.837285 1180.56423,373.864297 1180.78609,374.837221 C1181.01718,375.643593 1181.45299,376.300234 1181.55288,377.128703 L1236.82129,806.939616 C1237.76972,814.349666 1234.95278,823.056837 1228.14069,829.471536 C1228.05795,829.553328 1228.01608,829.660844 1227.96103,829.715592 C1227.61258,830.092228 1227.26017,830.439183 1226.887,830.807245 L1226.87645,830.817469 C1226.87645,830.817469 1226.85601,830.837917 1226.83524,830.858365 C1224.61531,833.046948 1222.01067,834.952889 1219.33944,836.692938 C1218.51496,837.191272 1217.75081,837.630242 1216.88381,838.104501 C1214.78322,839.314884 1212.5323,840.375866 1210.22601,841.290414 C1209.46087,841.597462 1208.66507,841.935182 1207.87553,842.214526 C1204.97783,843.199323 1202.00562,843.977991 1198.96187,844.381342 L627.411066,923.583916 C626.675596,923.679889 625.997156,923.588203 625.278499,923.632067 C624.325453,923.735956 623.357573,924 622.395626,924 C621.419834,924.024535 620.556456,923.825333 619.600443,923.766628 C618.336858,923.72969 617.090416,923.665378 615.871664,923.476729 C614.083591,923.220801 612.430019,922.802609 610.817325,922.340553 C609.733404,922.016355 608.670912,921.739649 607.694131,921.312881 C606.055063,920.642719 604.681372,919.768736 603.323834,918.839677 C602.522432,918.289893 601.675537,917.87269 601.009295,917.305096 Z" id="Stroke-15" stroke="url(#linearGradient-8)"></path>
                <path d="M642.041106,897.913419 C640.639361,896.614764 639.545381,895.080709 638.627689,893.4761 C638.433607,893.124319 638.087948,892.905734 637.898808,892.541754 C637.898808,892.511422 637.889582,892.459991 637.880356,892.43889 C637.842132,892.414493 637.842132,892.384162 637.837519,892.350863 L573.724006,759.720884 C573.577373,759.4146 573.575726,759.016992 573.443591,758.689609 C573.30289,758.280132 572.949653,757.95011 572.833005,757.52316 C572.53249,756.631344 572.562146,755.689415 572.421774,754.774521 C572.270198,753.840175 572.017792,752.91539 572,751.975769 C571.974297,750.585789 572.205614,749.159214 572.474166,747.728023 C572.615527,746.81115 572.666931,745.895597 572.960197,744.98367 C573.437331,743.425218 574.213332,741.901383 575.03151,740.373263 C575.435492,739.607389 575.691194,738.778215 576.183485,738.019924 C577.635316,735.765164 579.405126,733.589199 581.572327,731.542804 L765.226925,558.14712 L925.53987,406.78967 C927.581198,404.862293 929.841651,403.172623 932.264225,401.6689 C933.113048,401.146339 934.072258,400.785656 934.960623,400.30101 C936.579845,399.465571 938.173696,398.565843 939.9066,397.91668 C941.016727,397.503906 942.135421,397.29719 943.235662,396.953981 C944.848624,396.478236 946.465211,395.954026 948.112112,395.667524 C949.284846,395.472017 950.441764,395.457181 951.621747,395.370472 C952.968133,395.239255 954.352744,394.964292 955.683643,395 L1157.42714,397.697106 C1158.19985,397.721173 1158.88128,397.931187 1159.6553,397.999433 C1160.28368,398.038996 1161.00466,397.900855 1161.64259,397.99185 C1162.31051,398.086801 1162.80247,398.382864 1163.44041,398.474189 C1164.98846,398.78311 1166.44655,399.172475 1167.87663,399.655803 C1168.99664,400.052093 1170.06888,400.463877 1171.07488,400.948524 C1172.33262,401.569333 1173.46648,402.301908 1174.56606,403.089541 C1175.4363,403.754529 1176.29567,404.40534 1177.0631,405.127365 C1177.98244,406.037314 1178.68068,407.04584 1179.40396,408.075797 C1179.99905,408.97058 1180.62612,409.832723 1181.0558,410.801027 C1181.21199,411.128411 1181.49273,411.405352 1181.65848,411.73867 C1182.0071,412.61499 1181.99194,413.574063 1182.17087,414.489946 C1182.36199,415.251534 1182.74257,415.881575 1182.81375,416.657998 L1222.89759,819.856629 C1223.58495,826.807516 1220.81639,834.82133 1214.46965,840.53983 C1214.39255,840.612692 1214.35169,840.71127 1214.30028,840.760064 C1213.9744,841.097668 1213.64554,841.407908 1213.29791,841.736611 L1213.28802,841.745842 C1213.28802,841.745842 1213.26858,841.763975 1213.24914,841.782438 C1211.17881,843.737179 1208.76481,845.413661 1206.29413,846.93255 C1205.53229,847.365435 1204.82747,847.74491 1204.02741,848.153398 C1202.08823,849.200498 1200.01593,850.102205 1197.89651,850.864782 C1197.19432,851.121282 1196.46247,851.405476 1195.73754,851.635271 C1193.07838,852.440048 1190.35727,853.050637 1187.57948,853.307467 L665.903389,904.806611 C665.232502,904.867604 664.617303,904.755179 663.962562,904.767707 C663.093639,904.827711 662.207251,905.03146 661.332396,905 C660.444361,904.982666 659.663417,904.763091 658.795482,904.671107 C657.647132,904.587036 656.515258,904.477908 655.411392,904.254377 C653.791181,903.945786 652.297172,903.490482 650.841717,902.995945 C649.863395,902.651087 648.903856,902.351397 648.025706,901.915216 C646.55081,901.225501 645.322059,900.356104 644.109454,899.436264 C643.393753,898.891614 642.633569,898.469279 642.041106,897.913419 Z" id="Stroke-17" stroke="url(#linearGradient-9)"></path>
                <path d="M679.302257,880.62433 C678.056989,879.358375 677.097569,877.885599 676.30003,876.353214 C676.131555,876.017953 675.821969,875.800264 675.658438,875.453806 C675.659098,875.425483 675.652174,875.376742 675.643932,875.356653 C675.609973,875.332941 675.610962,875.304618 675.607335,875.273002 L620.383961,749.104631 C620.258016,748.81383 620.265599,748.443002 620.153502,748.132441 C620.034481,747.745146 619.721269,747.423717 619.624997,747.020614 C619.372448,746.177851 619.421903,745.300838 619.31574,744.442267 C619.200017,743.564925 618.992307,742.693181 619,741.816497 C619.007803,740.518926 619.252438,739.197972 619.530703,737.874384 C619.681045,737.025035 619.749623,736.17371 620.038108,735.33457 C620.509576,733.900655 621.252385,732.510212 622.033109,731.117464 C622.419185,730.419278 622.671404,729.656214 623.137266,728.968238 C624.512765,726.922752 626.175431,724.963552 628.197137,723.140695 L799.502123,568.669137 L949.034863,433.830093 C950.939197,432.112952 953.037393,430.626014 955.278348,429.319222 C956.063029,428.865401 956.9453,428.566367 957.765917,428.149103 C959.259448,427.433792 960.731878,426.657554 962.324647,426.120413 C963.345062,425.778895 964.368443,425.629707 965.377648,425.353067 C966.857991,424.972359 968.34229,424.546861 969.848019,424.344321 C970.920526,424.207977 971.97391,424.239593 973.050043,424.204684 C974.278826,424.135195 975.545855,423.933314 976.756504,424.022234 L1160.35493,434.434748 C1161.05784,434.487441 1161.67339,434.710399 1162.37631,434.80393 C1162.94767,434.865515 1163.6074,434.764739 1164.18536,434.874736 C1164.79134,434.989344 1165.23248,435.285085 1165.8111,435.395082 C1167.21297,435.743845 1168.5311,436.163745 1169.82154,436.670259 C1170.83206,437.083901 1171.79808,437.509728 1172.70244,438.000434 C1173.83264,438.628471 1174.84745,439.356297 1175.83028,440.133851 C1176.60639,440.787906 1177.37326,441.428129 1178.05475,442.131584 C1178.87042,443.016172 1179.48201,443.983422 1180.11635,444.972079 C1180.63661,445.829661 1181.18721,446.657933 1181.55548,447.57743 C1181.68967,447.888979 1181.93892,448.158373 1182.08168,448.47585 C1182.3784,449.306427 1182.34181,450.199578 1182.48292,451.060783 C1182.63887,451.77807 1182.97054,452.38042 1183.01703,453.107586 L1209.9497,830.598683 C1210.41095,837.105969 1207.70051,844.469191 1201.78672,849.551784 C1201.71484,849.617321 1201.67528,849.707558 1201.62715,849.75103 C1201.32283,850.053028 1201.01589,850.329668 1200.69146,850.622115 L1200.68256,850.630348 C1200.68256,850.630348 1200.66443,850.646815 1200.64629,850.662623 C1198.71493,852.404464 1196.4776,853.872959 1194.19246,855.191937 C1193.48856,855.565729 1192.83773,855.892098 1192.09987,856.241849 C1190.30994,857.141916 1188.40198,857.901687 1186.45446,858.529724 C1185.80858,858.741485 1185.13567,858.977617 1184.47034,859.16336 C1182.03057,859.809841 1179.53905,860.272224 1177.00367,860.402969 L700.862508,887.985905 C700.25026,888.015875 699.693071,887.887435 699.096647,887.873603 C698.304054,887.89501 697.492338,888.050455 696.696448,887.983271 C695.888689,887.936176 695.182806,887.700703 694.394829,887.580826 C693.351335,887.457656 692.323668,887.311761 691.324024,887.059822 C689.85654,886.708753 688.506758,886.225622 687.193572,885.707581 C686.311301,885.34795 685.444855,885.030803 684.655559,884.589167 C683.329185,883.888677 682.231292,883.030106 681.149554,882.1251 C680.510599,881.589275 679.828785,881.165424 679.302257,880.62433 Z" id="Stroke-19" stroke="url(#linearGradient-10)"></path>
                <path d="M714.517685,867.27189 C713.416075,866.0398 712.578588,864.625287 711.890288,863.161293 C711.745383,862.840982 711.469074,862.625573 711.32845,862.295036 C711.330097,862.268646 711.324828,862.223123 711.317912,862.20399 C711.287284,862.180239 711.288931,862.153849 711.286625,862.12449 L664.087988,742.003739 C663.980297,741.726642 663.996105,741.380272 663.901258,741.085691 C663.802788,740.718868 663.525492,740.405815 663.44777,740.025797 C663.238316,739.227494 663.303523,738.409399 663.227448,737.60285 C663.143139,736.778158 662.974851,735.954785 663,735.13537 C663.040717,733.923072 663.294302,732.697579 663.578514,731.470767 C663.735275,730.68269 663.817937,729.889336 664.099844,729.116105 C664.562224,727.794287 665.270284,726.523271 666.012924,725.251925 C666.380457,724.614273 666.627784,723.910646 667.067769,723.286188 C668.365989,721.427661 669.924051,719.66084 671.804527,718.036196 L831.156615,580.3363 L970.255874,460.138029 C972.027341,458.60707 973.969073,457.299107 976.036938,456.16532 C976.761136,455.771447 977.569971,455.526678 978.325455,455.169091 C979.699751,454.558819 981.056592,453.890818 982.517172,453.450762 C983.45247,453.172016 984.385792,453.072393 985.309893,452.853355 C986.66377,452.555476 988.022916,452.216033 989.396553,452.085731 C990.374335,452 991.33104,452.071217 992.310139,452.080783 C993.428545,452.063959 994.584824,451.924751 995.68314,452.055382 L1162.29927,468.988958 C1162.93685,469.06582 1163.49111,469.298053 1164.12771,469.41351 C1164.64542,469.49334 1165.24743,469.425056 1165.77041,469.550409 C1166.31841,469.68137 1166.71229,469.974961 1167.23527,470.100644 C1168.50122,470.481322 1169.68911,470.925666 1170.85,471.450171 C1171.75862,471.876372 1172.62641,472.312469 1173.43689,472.806625 C1174.44925,473.438339 1175.35425,474.158461 1176.22895,474.923776 C1176.9189,475.565716 1177.60061,476.194462 1178.20329,476.878627 C1178.92353,477.737296 1179.45672,478.66623 1180.00967,479.615286 C1180.46217,480.43734 1180.94299,481.233333 1181.25552,482.107507 C1181.37046,482.404066 1181.59045,482.665659 1181.71296,482.967826 C1181.96292,483.755902 1181.90858,484.589831 1182.01627,485.400339 C1182.14076,486.077247 1182.42827,486.653212 1182.45297,487.334738 L1197.98188,841.309251 C1198.24666,847.411316 1195.60873,854.188639 1190.11385,858.708943 C1190.047,858.767002 1190.00912,858.850131 1189.964,858.888726 C1189.68012,859.158895 1189.39492,859.405314 1189.09293,859.666246 L1189.08469,859.673833 C1189.08469,859.673833 1189.0679,859.688348 1189.05077,859.702863 C1187.25427,861.255264 1185.18608,862.540135 1183.07804,863.684148 C1182.42958,864.006108 1181.83053,864.285184 1181.15145,864.583393 C1179.50316,865.354645 1177.75112,865.989988 1175.96615,866.500968 C1175.37434,866.673823 1174.75718,866.867791 1174.14791,867.015576 C1171.91538,867.524246 1169.63971,867.858741 1167.33275,867.881833 L733.938296,875 C733.381069,875 732.877523,874.86203 732.336104,874.825414 C731.6152,874.814528 730.873877,874.928006 730.152314,874.833991 C729.418896,874.758119 728.782959,874.510381 728.069629,874.367545 C727.124451,874.211513 726.193764,874.034699 725.291069,873.760241 C723.965514,873.374285 722.750615,872.869573 721.569307,872.333853 C720.77595,871.963071 719.996096,871.632534 719.289024,871.18885 C718.10047,870.481594 717.122689,869.636119 716.161044,868.74776 C715.593278,868.221606 714.983359,867.798704 714.517685,867.27189 Z" id="Stroke-21" stroke="url(#linearGradient-11)"></path>
                <path d="M746.729671,855.648406 C745.757014,854.455529 745.029249,853.10237 744.437755,851.709635 C744.313334,851.404902 744.067454,851.193172 743.947312,850.879205 C743.949616,850.8548 743.945666,850.811927 743.939742,850.793788 C743.912422,850.770372 743.914397,850.745967 743.91308,850.718264 L703.833026,736.776872 C703.741521,736.514023 703.764233,736.191481 703.684906,735.912473 C703.603604,735.566845 703.359041,735.264091 703.297489,734.905931 C703.125669,734.153003 703.204996,733.392161 703.154635,732.636265 C703.097362,731.863549 702.964053,731.088855 703.009148,730.325044 C703.071688,729.195158 703.331392,728.061644 703.618745,726.928131 C703.780032,726.198619 703.874171,725.461851 704.149016,724.751467 C704.600619,723.535834 705.274402,722.377585 705.979784,721.220656 C706.329019,720.639883 706.57062,719.99315 706.985357,719.427547 C708.210477,717.744261 709.66831,716.156946 711.417118,714.714412 L859.586196,592.475316 L988.92391,485.772318 C990.571009,484.413223 992.368202,483.269155 994.275334,482.292295 C994.942864,481.953593 995.684124,481.756704 996.379631,481.452301 C997.643921,480.936498 998.893398,480.366608 1000.23175,480.013725 C1001.08953,479.789792 1001.94073,479.733727 1002.78633,479.56553 C1004.02462,479.340938 1005.2685,479.07743 1006.52061,479.009491 C1007.41196,478.968267 1008.27995,479.071823 1009.16999,479.119314 C1010.18774,479.147676 1011.24236,479.063248 1012.23806,479.228147 L1163.35539,501.567967 C1163.93306,501.664598 1164.43173,501.903371 1165.00808,502.035949 C1165.4768,502.130601 1166.02583,502.090696 1166.4985,502.228221 C1166.99388,502.372013 1167.34476,502.661575 1167.81776,502.799101 C1168.95993,503.204092 1170.02969,503.665149 1171.07312,504.20008 C1171.8891,504.633434 1172.66788,505.074373 1173.39301,505.56775 C1174.29885,506.196674 1175.10495,506.90409 1175.88209,507.6524 C1176.49465,508.279015 1177.09964,508.892109 1177.63156,509.554342 C1178.26617,510.384112 1178.72864,511.271597 1179.2092,512.17887 C1179.60156,512.963788 1180.01992,513.72529 1180.28357,514.553412 C1180.381,514.834399 1180.57487,515.087024 1180.67889,515.373948 C1180.88757,516.11929 1180.81845,516.895304 1180.89712,517.655816 C1180.99455,518.292326 1181.24207,518.841109 1181.24866,519.478277 L1187,850.394403 C1187.09382,856.09891 1184.53462,862.319879 1179.43073,866.321971 C1179.36852,866.373749 1179.33165,866.449603 1179.29018,866.483572 C1179.02586,866.724983 1178.76056,866.943969 1178.47979,867.175487 L1178.47189,867.182083 C1178.47189,867.182083 1178.45609,867.194945 1178.44062,867.207807 C1176.77016,868.586031 1174.85907,869.704044 1172.91475,870.688489 C1172.31766,870.96354 1171.76566,871.200665 1171.14158,871.45197 C1169.62417,872.106948 1168.01591,872.631326 1166.38099,873.037966 C1165.83821,873.175822 1165.27272,873.332805 1164.71513,873.446915 C1162.67272,873.834097 1160.59574,874.056711 1158.49704,873.987453 L764.207545,863.621589 C763.700973,863.60378 763.246408,863.451084 762.754978,863.396008 C762.099298,863.357752 761.422553,863.434265 760.768519,863.318506 C760.103623,863.218907 759.531549,862.962984 758.886074,862.801383 C758.029938,862.618675 757.187627,862.417169 756.373294,862.125628 C755.17714,861.713381 754.084341,861.19461 753.022482,860.648465 C752.309859,860.271507 751.608427,859.932475 750.976117,859.490547 C749.911625,858.78445 749.042653,857.956659 748.189479,857.089621 C747.684883,856.576456 747.140787,856.158273 746.729671,855.648406 Z" id="Stroke-23" stroke="url(#linearGradient-12)"></path>
                <path d="M774.904592,845.714646 C774.046122,844.564776 773.414554,843.275986 772.908311,841.954935 C772.802445,841.666233 772.583127,841.45917 772.481219,841.162239 C772.483528,841.139524 772.480889,841.099363 772.476272,841.082245 C772.451867,841.059201 772.454505,841.036487 772.453846,841.01081 L738.616333,733.286409 C738.53883,733.037868 738.567193,732.738303 738.501562,732.475278 C738.435932,732.150035 738.220243,731.858041 738.172422,731.521935 C738.033576,730.813841 738.123611,730.108052 738.095908,729.402263 C738.061939,728.680013 737.959041,727.952827 738.017745,727.243087 C738.101844,726.192962 738.365355,725.147116 738.65459,724.102258 C738.818501,723.429059 738.921728,722.746313 739.189196,722.095499 C739.629809,720.980523 740.271601,719.928093 740.942085,718.87731 C741.274194,718.350272 741.510001,717.757066 741.901474,717.246159 C743.058084,715.725947 744.424776,714.304492 746.05333,713.029199 L884.028592,604.951903 L1004.46738,510.610836 C1006.00128,509.409612 1007.66677,508.413803 1009.42824,507.578312 C1010.04529,507.288622 1010.72567,507.13456 1011.3668,506.878448 C1012.53199,506.447535 1013.68464,505.965596 1014.91282,505.689074 C1015.70005,505.514273 1016.47706,505.49518 1017.25209,505.371732 C1018.3866,505.211086 1019.52672,505.014229 1020.66981,505 C1021.4831,505 1022.27264,505.127142 1023.08263,505.206148 C1024.0097,505.272316 1024.97305,505.234788 1025.8767,505.427695 L1163.11222,532.16342 C1163.6366,532.276003 1164.08546,532.51796 1164.60786,532.663793 C1165.03297,532.770451 1165.53427,532.754979 1165.96202,532.901799 C1166.41022,533.055203 1166.72353,533.338309 1167.15128,533.485129 C1168.1829,533.907483 1169.1469,534.378887 1170.08552,534.918105 C1170.81932,535.353956 1171.51916,535.795404 1172.16853,536.282939 C1172.97918,536.904455 1173.69716,537.59543 1174.38776,538.323276 C1174.9316,538.930307 1175.46819,539.525817 1175.93749,540.163134 C1176.49683,540.961098 1176.89721,541.806136 1177.31375,542.670267 C1177.65278,543.416876 1178.01589,544.142746 1178.23686,544.924579 C1178.31898,545.190238 1178.48982,545.433182 1178.57787,545.704766 C1178.75036,546.407264 1178.6689,547.127538 1178.72299,547.839253 C1178.7962,548.43575 1179.00925,548.956862 1179,549.550726 L1176.39591,858.074849 C1176.34842,863.392959 1173.868,869.088653 1169.12019,872.617271 C1169.06214,872.6627 1169.02686,872.73216 1168.98827,872.762445 C1168.74125,872.97675 1168.49456,873.170315 1168.23303,873.375073 L1168.22577,873.380669 C1168.22577,873.380669 1168.21126,873.392191 1168.19675,873.403384 C1166.64108,874.622056 1164.87236,875.588895 1163.07627,876.429983 C1162.52517,876.662722 1162.01662,876.861884 1161.44178,877.071579 C1160.0431,877.622648 1158.5646,878.047965 1157.06434,878.362674 C1156.56634,878.469661 1156.04691,878.594096 1155.53604,878.67837 C1153.66476,878.958842 1151.76577,879.084923 1149.85424,878.938432 L790.648929,853.827932 C790.187539,853.791392 789.776937,853.631404 789.330058,853.560628 C788.733779,853.499069 788.114744,853.544168 787.521103,853.410516 C786.917239,853.292007 786.401431,853.030957 785.817025,852.854838 C785.041005,852.651068 784.278177,852.43018 783.542392,852.126993 C782.461966,851.69608 781.477842,851.17003 780.52274,850.61929 C779.882268,850.24006 779.2507,849.897041 778.684763,849.460531 C777.730981,848.760667 776.958918,847.955791 776.201037,847.114703 C775.753498,846.616634 775.267372,846.205473 774.904592,845.714646 Z" id="Stroke-25" stroke="url(#linearGradient-13)"></path>
                <path d="M802.740866,838.081656 C801.988173,836.972799 801.444323,835.741872 801.016095,834.486861 C800.926167,834.212369 800.731817,834.010129 800.646501,833.728378 C800.649136,833.706934 800.647819,833.669653 800.643866,833.653487 C800.622455,833.631052 800.62509,833.609608 800.62509,833.585524 L772.429565,731.491189 C772.36566,731.255627 772.398272,730.976516 772.344908,730.728417 C772.292862,730.421263 772.103783,730.139842 772.068207,729.82345 C771.959173,729.155695 772.057666,728.499157 772.049101,727.837669 C772.035266,727.160676 771.958844,726.476425 772.029666,725.814938 C772.130794,724.836069 772.394978,723.868088 772.68222,722.902086 C772.847582,722.278539 772.957603,721.643776 773.215858,721.045633 C773.642768,720.019586 774.251182,719.060512 774.885289,718.104078 C775.199871,717.624046 775.427821,717.078361 775.795767,716.615815 C776.882808,715.239064 778.158927,713.962938 779.668926,712.833626 L907.621168,617.144994 L1019.31096,533.617825 C1020.73333,532.554497 1022.27034,531.68846 1023.89135,530.975836 C1024.45892,530.729056 1025.08083,530.611605 1025.66981,530.397158 C1026.73841,530.039856 1027.79745,529.633726 1028.92039,529.423238 C1029.63982,529.290611 1030.34639,529.303478 1031.05363,529.218029 C1032.08829,529.112455 1033.12922,528.972899 1034.16849,529.004571 C1034.90768,529.033274 1035.62183,529.186357 1036.35608,529.291931 C1037.19705,529.390246 1038.0736,529.393216 1038.89053,529.608653 L1162.97225,559.997795 C1163.44627,560.123824 1163.84814,560.367634 1164.31919,560.524675 C1164.70328,560.641466 1165.15951,560.646085 1165.54458,560.800157 C1165.94811,560.961157 1166.22613,561.238619 1166.6112,561.392691 C1167.53881,561.828184 1168.40383,562.306896 1169.24382,562.847962 C1169.90032,563.284445 1170.52586,563.724556 1171.10463,564.206568 C1171.82669,564.819887 1172.46277,565.493911 1173.07316,566.201916 C1173.55245,566.791481 1174.02679,567.369168 1174.43789,567.984137 C1174.92673,568.752188 1175.27096,569.558509 1175.62903,570.382976 C1175.91923,571.09494 1176.23217,571.7881 1176.41433,572.528107 C1176.48252,572.779835 1176.63207,573.013748 1176.70585,573.271084 C1176.84585,573.934881 1176.75461,574.605605 1176.78689,575.273361 C1176.83959,575.834223 1177.02077,576.330091 1177,576.885344 L1167.31284,865.383089 C1167.14352,870.355953 1164.75434,875.586485 1160.35611,878.701247 C1160.30208,878.741497 1160.26848,878.805172 1160.23291,878.831895 C1160.00298,879.022918 1159.77405,879.193816 1159.5316,879.375271 L1159.52469,879.38055 C1159.52469,879.38055 1159.51151,879.390447 1159.498,879.400345 C1158.0552,880.479509 1156.42497,881.314203 1154.77333,882.030787 C1154.2667,882.226758 1153.79993,882.393367 1153.27223,882.566905 C1151.98787,883.027471 1150.63434,883.367287 1149.26335,883.603179 C1148.80844,883.68368 1148.33344,883.779686 1147.86733,883.838081 C1146.16035,884.027455 1144.43129,884.071004 1142.69763,883.858866 L816.856581,846.288054 C816.437906,846.235927 816.068641,846.070307 815.66413,845.986838 C815.123575,845.905678 814.559961,845.923823 814.024017,845.77503 C813.477861,845.640423 813.015375,845.375828 812.488655,845.188765 C811.788337,844.967719 811.099878,844.731167 810.43876,844.418404 C809.466682,843.973014 808.584862,843.442505 807.730052,842.890221 C807.156886,842.510155 806.590966,842.1644 806.087304,841.733856 C805.237106,841.042016 804.554247,840.258789 803.885882,839.44224 C803.490924,838.95891 803.058743,838.555089 802.740866,838.081656 Z" id="Stroke-27" stroke="url(#linearGradient-14)"></path>
                <path d="M827.371576,831.809853 C826.712918,830.747215 826.247576,829.580223 825.88762,828.394137 C825.812533,828.135391 825.640623,827.939191 825.569159,827.673532 C825.572123,827.65378 825.572123,827.618886 825.568829,827.603743 C825.549728,827.581687 825.553022,827.562264 825.553351,827.53955 L802.321495,731.353714 C802.268473,731.131837 802.305028,730.87342 802.262216,730.640021 C802.222367,730.351977 802.057044,730.082367 802.032015,729.786422 C801.948694,729.160295 802.053421,728.552603 802.061325,727.936023 C802.064948,727.305288 802.011596,726.665006 802.091623,726.051717 C802.206888,725.14413 802.470352,724.252673 802.754563,723.364179 C802.919556,722.790065 803.034492,722.203441 803.283465,721.656321 C803.696114,720.717789 804.272111,719.848388 804.871819,718.982279 C805.169203,718.547414 805.389853,718.048356 805.735319,717.631926 C806.756569,716.392511 807.947752,715.25383 809.347729,714.26131 L928.003653,630.15623 L1031.57894,556.740404 C1032.89823,555.805493 1034.31698,555.059211 1035.80819,554.45909 C1036.33017,554.251369 1036.89892,554.166437 1037.43935,553.989989 C1038.42042,553.698982 1039.39293,553.362216 1040.41945,553.210129 C1041.07712,553.114662 1041.71964,553.154495 1042.3648,553.102811 C1043.30832,553.044544 1044.25877,552.955662 1045.20328,553.02578 C1045.87511,553.081414 1046.52093,553.251936 1047.18683,553.379334 C1047.94923,553.50377 1048.74653,553.54031 1049.48423,553.773379 L1161.63591,586.934723 C1162.06436,587.07068 1162.42432,587.313295 1162.84915,587.478222 C1163.19561,587.601669 1163.61023,587.623725 1163.95702,587.782726 C1164.3206,587.94831 1164.56661,588.217591 1164.91339,588.376262 C1165.74692,588.817711 1166.52249,589.297676 1167.27369,589.834591 C1167.86055,590.266823 1168.4191,590.701359 1168.93384,591.172764 C1169.57636,591.771897 1170.13918,592.424688 1170.67763,593.108095 C1171.09983,593.675625 1171.51709,594.232621 1171.87672,594.82122 C1172.30353,595.555651 1172.59762,596.320039 1172.90357,597.101875 C1173.1509,597.776393 1173.4193,598.434122 1173.5675,599.130697 C1173.62348,599.367387 1173.7539,599.591568 1173.81482,599.833855 C1173.92647,600.458006 1173.82767,601.078866 1173.84117,601.701701 C1173.87575,602.226436 1174.02856,602.695208 1173.9953,603.211054 L1158.3581,871.513595 C1158.0864,876.138439 1155.789,880.91603 1151.71454,883.644388 C1151.66448,883.679941 1151.63254,883.737879 1151.59928,883.761252 C1151.38587,883.930129 1151.17378,884.08057 1150.94885,884.2399 L1150.94259,884.244509 C1150.94259,884.244509 1150.93008,884.253397 1150.91724,884.262285 C1149.57983,885.210364 1148.07677,885.924385 1146.55725,886.52681 C1146.09224,886.689432 1145.66345,886.826376 1145.17967,886.967271 C1144.00067,887.345844 1142.76074,887.609528 1141.50831,887.775113 C1141.09236,887.832722 1140.65798,887.90284 1140.23249,887.93971 C1138.67542,888.049002 1137.10155,888.022008 1135.52967,887.756349 L840.017481,840.005134 C839.638094,839.940283 839.305801,839.771406 838.940246,839.677915 C838.450204,839.581132 837.93711,839.575865 837.452996,839.416535 C836.959332,839.269715 836.545036,839.005372 836.070143,838.810489 C835.438161,838.57742 834.817705,838.330196 834.223925,838.012853 C833.350215,837.559882 832.560814,837.031197 831.796441,836.483418 C831.283676,836.107149 830.777497,835.762813 830.328951,835.342103 C829.572482,834.664622 828.96981,833.908134 828.38064,833.121361 C828.033198,832.65621 827.64953,832.263153 827.371576,831.809853 Z" id="Stroke-29" stroke="url(#linearGradient-15)"></path>
                <path d="M849.686524,827.221557 C849.111602,826.202065 848.715457,825.092201 848.415297,823.969144 C848.352956,823.724084 848.200897,823.534104 848.142515,823.282777 C848.145483,823.264306 848.146143,823.231654 848.143504,823.217141 C848.126682,823.196362 848.12998,823.177892 848.13097,823.157113 L829.244641,732.296364 C829.201761,732.086924 829.241343,731.846481 829.207699,731.626487 C829.178342,731.3557 829.03387,731.097117 829.018367,730.819403 C828.957016,730.230664 829.067184,729.666332 829.089284,729.090456 C829.107425,728.500398 829.073781,727.899455 829.16119,727.329186 C829.287851,726.484503 829.549089,725.661587 829.829129,724.84197 C829.993062,724.31161 830.111807,723.767397 830.351935,723.265402 C830.750389,722.403897 831.295954,721.613635 831.86296,720.82733 C832.143989,720.432528 832.357069,719.97407 832.681638,719.598399 C833.64182,718.4793 834.754061,717.461457 836.053985,716.588078 L946.182014,642.593632 L1042.31269,578.00384 C1043.53708,577.180925 1044.84789,576.538754 1046.22104,576.036429 C1046.70163,575.862611 1047.22179,575.805221 1047.71887,575.661417 C1048.61935,575.4279 1049.51389,575.151176 1050.45297,575.04926 C1051.05428,574.985934 1051.63909,575.048271 1052.22853,575.025183 C1053.08943,575.008032 1053.95758,574.962186 1054.8165,575.064432 C1055.4277,575.142931 1056.01219,575.327633 1056.61581,575.473086 C1057.30783,575.619199 1058.03316,575.684835 1058.70044,575.931544 L1160.11558,611.344284 C1160.50249,611.488088 1160.82475,611.729191 1161.2077,611.900041 C1161.52073,612.029332 1161.89807,612.066603 1162.2101,612.228217 C1162.53764,612.397748 1162.75567,612.65897 1163.0677,612.820914 C1163.81679,613.266839 1164.51243,613.746076 1165.184,614.277425 C1165.70878,614.70455 1166.20751,615.132993 1166.66534,615.59376 C1167.23663,616.179861 1167.73371,616.812467 1168.20836,617.472448 C1168.57943,618.019959 1168.94655,618.556915 1169.26024,619.121577 C1169.63164,619.825096 1169.88167,620.551372 1170.14191,621.29447 C1170.35137,621.934991 1170.57995,622.560671 1170.69869,623.217354 C1170.74388,623.441306 1170.85768,623.656023 1170.90749,623.885252 C1170.99424,624.473001 1170.88968,625.049537 1170.88704,625.632999 C1170.90617,626.124769 1171.03415,626.569374 1170.99127,627.05059 L1150.36863,877.34123 C1150.01108,881.655352 1147.80441,886.032801 1144.02602,888.424368 C1143.97984,888.455701 1143.94916,888.508473 1143.91816,888.529252 C1143.72025,888.678663 1143.523,888.811253 1143.31421,888.951429 L1143.3086,888.955387 L1143.28518,888.970889 C1142.04364,889.805019 1140.6573,890.413877 1139.25776,890.917521 C1138.83028,891.051101 1138.43645,891.162582 1137.99214,891.275382 C1136.90827,891.58344 1135.77261,891.781005 1134.62705,891.886879 C1134.24707,891.92415 1133.84928,891.972964 1133.46072,891.990445 C1132.03908,892.031673 1130.60557,891.944269 1129.17932,891.634563 L861.016408,835.381778 C860.672049,835.306577 860.373208,835.135398 860.042043,835.033482 C859.59807,834.92365 859.130678,834.898583 858.693302,834.731031 C858.24669,834.574034 857.875614,834.310503 857.447143,834.109639 C856.877169,833.866558 856.31775,833.611273 855.78373,833.291012 C854.998366,832.833543 854.291506,832.308131 853.607735,831.765567 C853.149579,831.393524 852.69637,831.051824 852.297916,830.640861 C851.62437,829.977252 851.092988,829.246687 850.5748,828.487758 C850.269362,828.039195 849.928961,827.656267 849.686524,827.221557 Z" id="Stroke-31" stroke="url(#linearGradient-16)"></path>
                <path d="M870.495474,823.446971 C869.99743,822.473266 869.663975,821.422072 869.41808,820.362306 C869.367058,820.131162 869.233742,819.94816 869.18634,819.711081 C869.189632,819.693934 869.190949,819.663599 869.188974,819.65008 C869.174161,819.629966 869.177782,819.61282 869.179098,819.593365 L854.179855,734.071138 C854.145621,733.873957 854.187097,733.651057 854.16208,733.444643 C854.141671,733.190418 854.016584,732.943776 854.009013,732.683945 C853.967537,732.13197 854.080773,731.61 854.114349,731.073193 C854.144963,730.523855 854.128504,729.961328 854.221661,729.432764 C854.356623,728.649975 854.613051,727.891915 854.886926,727.138142 C855.048222,726.649806 855.168701,726.146631 855.399124,725.687641 C855.780968,724.899575 856.294812,724.183062 856.828078,723.471825 C857.093065,723.114393 857.297154,722.694971 857.600984,722.357323 C858.499635,721.350644 859.533577,720.444204 860.734412,719.680539 L962.482777,654.950045 L1051.29945,598.446755 C1052.43018,597.727275 1053.63529,597.179256 1054.89439,596.76412 C1055.33483,596.621016 1055.80851,596.587712 1056.2631,596.472965 C1057.0867,596.290292 1057.90536,596.067392 1058.76056,596.009029 C1059.30798,595.973417 1059.8373,596.054532 1060.3732,596.056181 C1061.15565,596.073986 1061.94501,596.064754 1062.72253,596.194339 C1063.27554,596.291281 1063.80157,596.486814 1064.34602,596.645746 C1064.97113,596.809294 1065.6285,596.898982 1066.22825,597.155515 L1157.47689,634.172161 C1157.82482,634.32153 1158.11187,634.558939 1158.45553,634.733698 C1158.73697,634.866251 1159.07866,634.915712 1159.35813,635.07893 C1159.65109,635.249733 1159.843,635.502309 1160.12247,635.665528 C1160.79235,636.110669 1161.41219,636.585487 1162.00997,637.107456 C1162.47608,637.526549 1162.91883,637.945971 1163.32371,638.39375 C1163.82834,638.962872 1164.26483,639.572551 1164.68025,640.20696 C1165.00449,640.732557 1165.3251,641.247931 1165.59635,641.787047 C1165.91729,642.458057 1166.12698,643.145553 1166.34588,643.849536 C1166.52067,644.455258 1166.71357,645.048121 1166.80541,645.665713 C1166.84162,645.876413 1166.93938,646.080849 1166.97954,646.296495 C1167.04439,646.848471 1166.93576,647.38264 1166.91963,647.926702 C1166.92556,648.386682 1167.03123,648.806104 1166.98086,649.253553 L1142.33313,881.992966 C1141.90685,886.004845 1139.79914,890.002875 1136.31217,892.086467 C1136.26938,892.113835 1136.24041,892.161646 1136.21177,892.180111 C1136.02776,892.312005 1135.84573,892.427412 1135.65316,892.550073 L1135.64757,892.5537 L1135.62617,892.567219 C1134.47899,893.297251 1133.20574,893.810318 1131.92327,894.225784 C1131.53188,894.333936 1131.17143,894.422305 1130.76522,894.510344 C1129.77407,894.755007 1128.73816,894.895144 1127.69566,894.948891 C1127.34969,894.968675 1126.98727,895 1126.63406,895 C1125.34205,894.982524 1124.04246,894.845355 1122.75505,894.500123 L880.589662,831.505351 C880.27892,831.421269 880.011629,831.250137 879.713395,831.141984 C879.312788,831.02262 878.888809,830.980744 878.495772,830.806644 C878.094177,830.643095 877.763355,830.382605 877.379207,830.17817 C876.867009,829.92922 876.365015,829.66906 875.888039,829.349547 C875.185906,828.891546 874.556192,828.373533 873.948203,827.840683 C873.541012,827.475667 873.137442,827.139008 872.785553,826.740029 C872.189415,826.094409 871.724289,825.391415 871.272001,824.663362 C871.005368,824.232729 870.705159,823.862107 870.495474,823.446971 Z" id="Stroke-33" stroke="url(#linearGradient-17)"></path>
                <path d="M889.863662,821.083544 C889.433486,820.154478 889.154827,819.159074 888.955879,818.15938 C888.915364,817.941553 888.798104,817.764981 888.760554,817.542203 C888.764177,817.526361 888.766153,817.497978 888.764506,817.485106 C888.751331,817.465634 888.754954,817.449792 888.756931,817.431969 L877.12604,736.944517 C877.09969,736.759364 877.142839,736.552758 877.124723,736.358694 C877.112206,736.120405 877.004168,735.885085 877.00351,735.642175 C876.978476,735.125001 877.09409,734.64182 877.13724,734.141478 C877.178083,733.629254 877.176766,733.103499 877.273605,732.613058 C877.41524,731.886967 877.66689,731.18926 877.933691,730.495514 C878.092454,730.045668 878.214326,729.58031 878.434355,729.160498 C878.80096,728.439358 879.286143,727.790167 879.788454,727.146587 C880.037798,726.822817 880.233782,726.439309 880.51837,726.135671 C881.360276,725.230368 882.322737,724.424408 883.43408,723.757725 L977.602755,667.282743 L1059.80292,617.985494 C1060.84937,617.357756 1061.96006,616.892728 1063.11554,616.554436 C1063.52035,616.437932 1063.95217,616.42572 1064.36885,616.336279 C1065.12281,616.197992 1065.87347,616.02208 1066.65346,616 C1067.1528,615.989406 1067.63272,616.085778 1068.12053,616.108221 C1068.83266,616.155747 1069.55105,616.178189 1070.25626,616.329678 C1070.75726,616.441892 1071.2319,616.645197 1071.724,616.815169 C1072.28889,616.992731 1072.88508,617.102304 1073.42527,617.365347 L1155.62478,655.53295 C1155.93802,655.686089 1156.19362,655.919428 1156.50258,656.096 C1156.75522,656.230987 1157.0655,656.290394 1157.31616,656.454094 C1157.57868,656.625056 1157.74766,656.868296 1157.99832,657.031996 C1158.59714,657.474251 1159.15083,657.94192 1159.68213,658.453153 C1160.09683,658.863064 1160.48978,659.272315 1160.84782,659.706649 C1161.29414,660.258148 1161.67721,660.844961 1162.04019,661.453887 C1162.32281,661.95753 1162.60245,662.451601 1162.83697,662.966135 C1163.113,663.605755 1163.28724,664.256266 1163.47005,664.922289 C1163.61498,665.49491 1163.77671,666.05631 1163.84588,666.636852 C1163.87355,666.835537 1163.9582,667.029931 1163.98883,667.233567 C1164.03527,667.751401 1163.92361,668.246133 1163.89595,668.753736 C1163.89068,669.18378 1163.97697,669.579829 1163.92032,669.996011 L1135.96877,886.459735 C1135.48523,890.191179 1133.47203,893.843414 1130.24802,895.65303 C1130.20816,895.676792 1130.18082,895.720358 1130.15447,895.7362 C1129.98385,895.852374 1129.81521,895.953367 1129.63668,896.0603 L1129.63207,896.063601 L1129.61198,896.075152 C1128.5507,896.711801 1127.37908,897.141515 1126.20186,897.479477 C1125.8425,897.564628 1125.51246,897.632946 1125.14058,897.699614 C1124.23247,897.889058 1123.28582,897.979159 1122.33522,897.98873 C1122.01967,897.993681 1121.6893,898.007543 1121.36782,897.994671 C1120.19191,897.927673 1119.01206,897.74813 1117.84769,897.375184 L898.863101,829.008491 C898.582465,828.91773 898.343003,828.747428 898.074225,828.634554 C897.711902,828.507159 897.327182,828.451382 896.973423,828.273489 C896.611429,828.104838 896.31663,827.848727 895.971765,827.642781 C895.511286,827.389639 895.060359,827.127257 894.633476,826.809757 C894.005011,826.3543 893.444399,825.845707 892.90355,825.324242 C892.541557,824.967138 892.181869,824.636767 891.87093,824.249958 C891.343586,823.62321 890.936796,822.948606 890.542523,822.250569 C890.309648,821.837358 890.045153,821.479593 889.863662,821.083544 Z" id="Stroke-35" stroke="url(#linearGradient-18)"></path>
                <path d="M906.689768,819.202725 C906.320165,818.319849 906.089699,817.381608 905.932428,816.442049 C905.900447,816.237396 905.797907,816.068335 905.769223,815.859068 C905.77252,815.844567 905.775157,815.817873 905.774168,815.806009 C905.762299,815.787554 905.765926,815.772724 905.768234,815.755917 L897.081409,740.287338 C897.061956,740.113334 897.106137,739.922522 897.093938,739.740937 C897.088333,739.518488 896.995685,739.294721 897,739.068647 C896.990409,738.58552 897.107126,738.139304 897.158231,737.674962 C897.207358,737.199085 897.218568,736.709368 897.318799,736.256231 C897.46486,735.584929 897.710492,734.944275 897.969973,734.308236 C898.124936,733.895304 898.247258,733.466554 898.457282,733.083942 C898.808421,732.426151 899.265397,731.839874 899.738198,731.259859 C899.97328,730.968204 900.160555,730.618217 900.426959,730.346335 C901.215292,729.535631 902.111109,728.822146 903.13881,728.244767 L990.241149,679.302668 L1066.27287,636.581234 C1067.24123,636.03714 1068.26332,635.647936 1069.32432,635.377372 C1069.69524,635.285097 1070.08892,635.2907 1070.47039,635.223141 C1071.16047,635.124275 1071.84824,634.989158 1072.55909,635 C1073.01442,635.008931 1073.4493,635.117684 1073.89276,635.157889 C1074.54031,635.230062 1075.19412,635.279165 1075.83276,635.447897 C1076.28644,635.572469 1076.71407,635.780417 1077.15786,635.958047 C1077.66825,636.145563 1078.20897,636.271124 1078.6943,636.537733 L1152.65447,675.331869 C1152.93604,675.487089 1153.16321,675.714811 1153.44049,675.891122 C1153.66733,676.026899 1153.94857,676.094457 1154.17278,676.256598 C1154.40819,676.426648 1154.5559,676.659972 1154.78043,676.822113 C1155.31554,677.257784 1155.80846,677.715535 1156.2806,678.213162 C1156.64823,678.611263 1156.99673,679.007717 1157.31259,679.42691 C1157.7056,679.958151 1158.04091,680.520041 1158.3571,681.101704 C1158.60241,681.582194 1158.8454,682.053787 1159.04718,682.542186 C1159.28292,683.149225 1159.42668,683.762525 1159.57735,684.390326 C1159.69539,684.929806 1159.82958,685.4594 1159.87871,686.003165 C1159.89915,686.189033 1159.97168,686.373913 1159.99509,686.564395 C1160.02477,687.049499 1159.91168,687.505932 1159.87409,687.978183 C1159.85892,688.378262 1159.92816,688.750988 1159.86717,689.136566 L1129.28343,889.782037 C1128.75523,893.240379 1126.83468,896.565582 1123.85544,898.125691 C1123.81884,898.146453 1123.79279,898.186 1123.76839,898.199841 C1123.61046,898.301014 1123.45418,898.388676 1123.28933,898.48128 L1123.28504,898.483917 C1123.28504,898.483917 1123.27548,898.48919 1123.26658,898.494133 C1122.28471,899.045807 1121.20722,899.400407 1120.1271,899.668994 C1119.79805,899.734575 1119.4957,899.785327 1119.15545,899.832453 C1118.32392,899.973832 1117.45976,900.020628 1116.59394,899.991957 C1116.30644,899.984377 1116.00508,899.984377 1115.7123,899.95999 C1114.64306,899.851567 1113.57282,899.637686 1112.52106,899.244528 L914.698713,826.941647 C914.444837,826.846076 914.230857,826.678004 913.988851,826.56233 C913.66178,826.42952 913.312949,826.362291 912.99478,826.182684 C912.669358,826.011315 912.40658,825.760854 912.097314,825.555212 C911.68419,825.301785 911.279967,825.03913 910.898824,824.726713 C910.337001,824.277531 909.838153,823.781551 909.358098,823.274038 C909.036632,822.927017 908.717145,822.605043 908.442827,822.232647 C907.977609,821.627915 907.622843,820.982977 907.280276,820.316948 C907.077835,819.92313 906.84572,819.579405 906.689768,819.202725 Z" id="Stroke-37" stroke="url(#linearGradient-19)"></path>
                <path d="M922.900738,818.369598 C922.585911,817.531563 922.399054,816.647081 922.278321,815.764246 C922.254306,815.572197 922.165155,815.410453 922.143771,815.213792 C922.14739,815.200615 922.150351,815.175909 922.149693,815.164709 C922.139824,815.14692 922.143113,815.133414 922.145416,815.117932 L916.045268,744.367594 C916.03178,744.204203 916.076192,744.027966 916.069941,743.858317 C916.069612,743.650784 915.990988,743.438311 916,743.227485 C916.002831,742.775855 916.119616,742.364415 916.177187,741.933538 C916.232783,741.491462 916.254824,741.034562 916.356148,740.615874 C916.504844,739.995254 916.742691,739.407247 916.993698,738.82418 C917.144038,738.444693 917.264772,738.049393 917.465116,737.700542 C917.799024,737.100675 918.228005,736.571633 918.671131,736.049179 C918.891214,735.786305 919.069518,735.467101 919.317564,735.223992 C920.052489,734.498618 920.882818,733.867786 921.829602,733.369379 L1002.06219,691.118144 L1072.09694,654.237049 C1072.98911,653.767302 1073.92636,653.444145 1074.89551,653.233648 C1075.23501,653.161506 1075.59228,653.182259 1075.94,653.134494 C1076.56867,653.06894 1077.19635,652.970115 1077.84147,653.008657 C1078.25433,653.034351 1078.64679,653.152611 1079.04847,653.207624 C1079.6347,653.29986 1080.22685,653.371673 1080.80255,653.55417 C1081.2118,653.687913 1081.59505,653.898739 1081.99344,654.081894 C1082.45268,654.276909 1082.94022,654.415263 1083.3748,654.682749 L1149.60004,693.772579 C1149.85236,693.928063 1150.05303,694.149431 1150.30042,694.32468 C1150.5034,694.460729 1150.75704,694.534847 1150.95672,694.694614 C1151.16628,694.862287 1151.29524,695.08596 1151.49492,695.246057 C1151.97062,695.673639 1152.40749,696.119997 1152.82397,696.602263 C1153.14834,696.988338 1153.45527,697.371779 1153.73227,697.775313 C1154.0767,698.286567 1154.36752,698.823845 1154.64089,699.378911 C1154.85209,699.837129 1155.06165,700.286123 1155.23271,700.74994 C1155.43306,701.32543 1155.54853,701.902897 1155.67058,702.494857 C1155.76532,703.002817 1155.87454,703.502212 1155.90612,704.011489 C1155.92027,704.18575 1155.98179,704.360999 1156,704.539872 C1156.01403,704.993149 1155.90053,705.414472 1155.85546,705.853584 C1155.8321,706.226483 1155.88638,706.577311 1155.82125,706.934398 L1123.30851,892.933586 C1122.74662,896.139134 1120.92477,899.166138 1118.18311,900.505214 C1118.14955,900.523332 1118.12488,900.559239 1118.10218,900.570768 C1117.95677,900.659381 1117.81301,900.734817 1117.6607,900.814865 L1117.65675,900.817171 C1117.65675,900.817171 1117.6482,900.821783 1117.63997,900.825736 C1116.7353,901.302401 1115.74904,901.59097 1114.76212,901.799161 C1114.46176,901.847585 1114.18609,901.882832 1113.87619,901.913797 C1113.11791,902.012952 1112.33199,902.022834 1111.54673,901.962551 C1111.28586,901.943774 1111.01215,901.932245 1110.74733,901.897656 C1109.77883,901.754689 1108.81231,901.513227 1107.86717,901.10541 L929.988134,825.903344 C929.760156,825.804189 929.569681,825.638822 929.352558,825.52155 C929.059443,825.384843 928.743958,825.308418 928.459068,825.128557 C928.167926,824.955943 927.935671,824.711846 927.659663,824.508266 C927.290555,824.255275 926.929343,823.994377 926.590829,823.68835 C926.091448,823.247262 925.650295,822.764997 925.226578,822.27252 C924.943003,821.936186 924.660744,821.62324 924.420594,821.265165 C924.012338,820.682758 923.705736,820.067079 923.410318,819.432294 C923.235962,819.05676 923.032986,818.727014 922.900738,818.369598 Z" id="Stroke-39" stroke="url(#linearGradient-20)"></path>
                <path d="M936.515641,818.417422 C936.247971,817.62217 936.098459,816.788672 936.009676,815.95913 C935.992183,815.778451 935.914622,815.623818 935.9001,815.439512 C935.90373,815.427313 935.906371,815.404233 935.906041,815.394013 C935.897789,815.376538 935.90142,815.364339 935.90373,815.349832 L932.015425,749.016489 C932.007173,748.863505 932.05206,748.70063 932.05008,748.541382 C932.05503,748.347844 931.98803,748.146063 932,747.949558 C932.014434,747.527863 932.130942,747.148371 932.193321,746.747778 C932.25537,746.336963 932.286065,745.911312 932.38838,745.523907 C932.538552,744.949887 932.769916,744.409828 933.012832,743.875044 C933.159374,743.526544 933.278852,743.161888 933.46962,742.844051 C933.789107,742.296738 934.193087,741.819653 934.610269,741.348502 C934.817209,741.111443 934.987515,740.820312 935.219869,740.603035 C935.907691,739.954173 936.680995,739.397628 937.556945,738.96901 L1011.79979,702.649848 L1076.60621,670.946909 C1077.43166,670.543019 1078.29474,670.277605 1079.18488,670.119346 C1079.49611,670.065603 1079.82154,670.098574 1080.14037,670.067911 C1080.71597,670.030984 1081.29125,669.963394 1081.8794,670.02472 C1082.25532,670.064944 1082.61078,670.191222 1082.97615,670.258152 C1083.50885,670.367615 1084.04815,670.457625 1084.56929,670.650833 C1084.93928,670.791947 1085.28418,671.003948 1085.64393,671.190562 C1086.05848,671.390694 1086.50041,671.539392 1086.89053,671.806125 L1146.41517,710.924495 C1146.64126,711.079457 1146.81948,711.294096 1147.04128,711.467851 C1147.22313,711.602372 1147.45252,711.681831 1147.6314,711.839101 C1147.81887,712.003954 1147.93109,712.217604 1148.10997,712.375204 C1148.53376,712.793602 1148.92189,713.227496 1149.29056,713.69436 C1149.5777,714.067918 1149.84867,714.438178 1150.09159,714.825913 C1150.39424,715.316846 1150.6464,715.830529 1150.88304,716.359708 C1151.06523,716.795581 1151.24577,717.223869 1151.39099,717.663698 C1151.55997,718.209033 1151.65206,718.753378 1151.74909,719.310912 C1151.82368,719.788987 1151.91115,720.259808 1151.92798,720.736893 C1151.93689,720.900098 1151.98904,721.0666 1152,721.234091 C1152.00323,721.658423 1151.88969,722.047807 1151.83821,722.455984 C1151.80784,722.803494 1151.8491,723.132871 1151.78144,723.464226 L1117.68442,895.945294 C1117.09561,898.917929 1115.36054,901.674276 1112.8261,902.817039 C1112.79507,902.832535 1112.77164,902.865176 1112.75085,902.875397 C1112.61586,902.951889 1112.48252,903.017171 1112.34225,903.08608 L1112.33829,903.088058 C1112.33829,903.088058 1112.33004,903.091685 1112.32244,903.095641 C1111.48544,903.504807 1110.57847,903.735602 1109.67248,903.891553 C1109.39722,903.925183 1109.14473,903.947273 1108.86089,903.963759 C1108.16647,904.026733 1107.44894,904.005302 1106.7334,903.9176 C1106.49609,903.890234 1106.24657,903.868473 1106.00498,903.825941 C1105.12474,903.654164 1104.24813,903.391058 1103.39495,902.972661 L942.806702,825.733612 C942.600752,825.632062 942.431107,825.470506 942.235388,825.352141 C941.970689,825.212675 941.684866,825.12893 941.429409,824.94957 C941.16768,824.777133 940.961069,824.540074 940.714193,824.338953 C940.383154,824.088046 940.059706,823.830216 939.757711,823.530842 C939.312805,823.098926 938.921367,822.631073 938.546102,822.154647 C938.295594,821.829556 938.045087,821.526226 937.834186,821.182012 C937.475423,820.62217 937.210064,820.034633 936.955596,819.429951 C936.805424,819.07222 936.628188,818.756361 936.515641,818.417422 Z" id="Stroke-41" stroke="url(#linearGradient-21)"></path>
                <path d="M950.437998,818.581011 C950.214147,817.829554 950.098441,817.0475 950.037301,816.271367 C950.025796,816.102915 949.959068,815.955848 949.950522,815.783118 C949.95348,815.771932 949.957096,815.750546 949.957096,815.741005 C949.949864,815.724554 949.953151,815.713368 949.955781,815.699879 L948,753.765908 C947.996015,753.622789 948.040719,753.472761 948.042691,753.325036 C948.051566,753.14441 947.995686,752.954243 948.013107,752.771643 C948.034474,752.379464 948.148864,752.030386 948.214935,751.659922 C948.281006,751.279258 948.318479,750.884118 948.420707,750.527144 C948.57027,749.998755 948.792806,749.504913 949.025204,749.016334 C949.166549,748.697525 949.283241,748.362265 949.464031,748.073724 C949.766115,747.576591 950.143474,747.147892 950.532337,746.725774 C950.725947,746.512576 950.887015,746.248382 951.102649,746.054924 C951.74166,745.477514 952.455288,744.989264 953.259312,744.624393 L1021.3939,713.697547 L1080.86929,686.701043 C1081.62697,686.357228 1082.41521,686.14403 1083.22548,686.03118 C1083.5085,685.993344 1083.80302,686.036773 1084.09262,686.020652 C1084.61461,686.009137 1085.13791,685.968339 1085.66911,686.048289 C1086.00932,686.100601 1086.32817,686.231547 1086.65754,686.308535 C1087.13778,686.431255 1087.6246,686.536209 1088.09203,686.736575 C1088.42402,686.882326 1088.7317,687.093221 1089.05317,687.281414 C1089.42363,687.483755 1089.82071,687.639376 1090.16816,687.902912 L1143.18276,726.662805 C1143.38426,726.816452 1143.54073,727.02307 1143.73762,727.193167 C1143.89935,727.326087 1144.10545,727.408997 1144.26356,727.562315 C1144.42956,727.723201 1144.5262,727.926857 1144.68464,728.080505 C1145.05838,728.486502 1145.39991,728.905659 1145.72336,729.355414 C1145.97449,729.714363 1146.21116,730.070022 1146.42252,730.440486 C1146.6845,730.909324 1146.90178,731.397573 1147.10328,731.899641 C1147.2581,732.313205 1147.41128,732.718545 1147.5329,733.134083 C1147.67293,733.648653 1147.74328,734.159275 1147.81855,734.682399 C1147.87443,735.130509 1147.9428,735.572369 1147.94675,736.017518 C1147.95102,736.170178 1147.99408,736.326786 1148,736.483395 C1147.9931,736.878534 1147.88068,737.236825 1147.82447,737.615185 C1147.78897,737.937614 1147.81855,738.245896 1147.74952,738.551874 L1112.77516,897.866258 C1112.17132,900.612167 1110.53401,903.111648 1108.21069,904.07729 C1108.18177,904.09045 1108.15974,904.120061 1108.14068,904.128944 C1108.01643,904.195075 1107.89448,904.250348 1107.76529,904.308583 L1107.76168,904.310228 C1107.76168,904.310228 1107.75477,904.313518 1107.74721,904.317137 C1106.97902,904.665558 1106.15166,904.845197 1105.32725,904.954757 C1105.07678,904.975484 1104.84767,904.986342 1104.59029,904.990619 C1103.95917,905.021875 1103.30964,904.973839 1102.66339,904.864279 C1102.44874,904.829404 1102.22325,904.799793 1102.00564,904.750442 C1101.21214,904.555998 1100.42357,904.276669 1099.66063,903.853893 L955.965249,825.640886 C955.7815,825.538235 955.631609,825.380969 955.457064,825.263512 C955.220722,825.123026 954.963342,825.033864 954.735875,824.856857 C954.50282,824.686102 954.321044,824.457111 954.102123,824.260035 C953.808257,824.013607 953.521622,823.760599 953.255039,823.470084 C952.861573,823.050598 952.518401,822.599527 952.189362,822.141217 C951.969784,821.828329 951.750206,821.53584 951.567444,821.20716 C951.255498,820.671534 951.029018,820.114522 950.812727,819.541388 C950.684859,819.202509 950.53168,818.901136 950.437998,818.581011 Z" id="Stroke-43" stroke="url(#linearGradient-22)"></path>
            </g>
        </g>
    </g>
</svg>