<?xml version="1.0" encoding="UTF-8"?>
<svg width="634px" height="648px" viewBox="0 0 634 648" version="1.1" xmlns="http://www.w3.org/2000/svg" xmlns:xlink="http://www.w3.org/1999/xlink">
    <title>laser-lines/liquid</title>
    <defs>
        <linearGradient x1="-51.6477474%" y1="-25.9450605%" x2="74.6515471%" y2="172.089214%" id="linearGradient-1">
            <stop stop-color="#179BD1" offset="0%"></stop>
            <stop stop-color="#0D433F" offset="35.8671931%"></stop>
            <stop stop-color="#26B7AE" offset="73.1308143%"></stop>
            <stop stop-color="#35D6A3" offset="100%"></stop>
        </linearGradient>
        <linearGradient x1="-50.4486571%" y1="-25.9450605%" x2="74.3607444%" y2="172.089214%" id="linearGradient-2">
            <stop stop-color="#179BD1" offset="0%"></stop>
            <stop stop-color="#0D433F" offset="35.8671931%"></stop>
            <stop stop-color="#26B7AE" offset="73.1308143%"></stop>
            <stop stop-color="#35D6A3" offset="100%"></stop>
        </linearGradient>
        <linearGradient x1="-49.4692463%" y1="-25.9450605%" x2="74.1232184%" y2="172.089214%" id="linearGradient-3">
            <stop stop-color="#179BD1" offset="0%"></stop>
            <stop stop-color="#0D433F" offset="35.8671931%"></stop>
            <stop stop-color="#26B7AE" offset="73.1308143%"></stop>
            <stop stop-color="#35D6A3" offset="100%"></stop>
        </linearGradient>
        <linearGradient x1="-49.086777%" y1="-25.9450605%" x2="74.0304621%" y2="172.089214%" id="linearGradient-4">
            <stop stop-color="#179BD1" offset="0%"></stop>
            <stop stop-color="#0D433F" offset="35.8671931%"></stop>
            <stop stop-color="#26B7AE" offset="73.1308143%"></stop>
            <stop stop-color="#35D6A3" offset="100%"></stop>
        </linearGradient>
        <linearGradient x1="-48.3833385%" y1="-25.9450605%" x2="73.8598647%" y2="172.089214%" id="linearGradient-5">
            <stop stop-color="#179BD1" offset="0%"></stop>
            <stop stop-color="#0D433F" offset="35.8671931%"></stop>
            <stop stop-color="#26B7AE" offset="73.1308143%"></stop>
            <stop stop-color="#35D6A3" offset="100%"></stop>
        </linearGradient>
        <linearGradient x1="-48.1401165%" y1="-25.9450605%" x2="73.8008786%" y2="172.089214%" id="linearGradient-6">
            <stop stop-color="#179BD1" offset="0%"></stop>
            <stop stop-color="#0D433F" offset="35.8671931%"></stop>
            <stop stop-color="#26B7AE" offset="73.1308143%"></stop>
            <stop stop-color="#35D6A3" offset="100%"></stop>
        </linearGradient>
        <linearGradient x1="-48.2416472%" y1="-25.9450605%" x2="73.8255018%" y2="172.089214%" id="linearGradient-7">
            <stop stop-color="#179BD1" offset="0%"></stop>
            <stop stop-color="#0D433F" offset="35.8671931%"></stop>
            <stop stop-color="#26B7AE" offset="73.1308143%"></stop>
            <stop stop-color="#35D6A3" offset="100%"></stop>
        </linearGradient>
        <linearGradient x1="-48.0484467%" y1="-25.9450605%" x2="73.7786469%" y2="172.089214%" id="linearGradient-8">
            <stop stop-color="#179BD1" offset="0%"></stop>
            <stop stop-color="#0D433F" offset="35.8671931%"></stop>
            <stop stop-color="#26B7AE" offset="73.1308143%"></stop>
            <stop stop-color="#35D6A3" offset="100%"></stop>
        </linearGradient>
        <linearGradient x1="-47.8615767%" y1="-25.9450605%" x2="73.7333273%" y2="172.089214%" id="linearGradient-9">
            <stop stop-color="#179BD1" offset="0%"></stop>
            <stop stop-color="#0D433F" offset="35.8671931%"></stop>
            <stop stop-color="#26B7AE" offset="73.1308143%"></stop>
            <stop stop-color="#35D6A3" offset="100%"></stop>
        </linearGradient>
        <linearGradient x1="-48.2269014%" y1="-25.9450605%" x2="73.8219256%" y2="172.089214%" id="linearGradient-10">
            <stop stop-color="#179BD1" offset="0%"></stop>
            <stop stop-color="#0D433F" offset="35.8671931%"></stop>
            <stop stop-color="#26B7AE" offset="73.1308143%"></stop>
            <stop stop-color="#35D6A3" offset="100%"></stop>
        </linearGradient>
        <linearGradient x1="-48.0658838%" y1="-25.9450605%" x2="73.7828758%" y2="172.089214%" id="linearGradient-11">
            <stop stop-color="#179BD1" offset="0%"></stop>
            <stop stop-color="#0D433F" offset="35.8671931%"></stop>
            <stop stop-color="#26B7AE" offset="73.1308143%"></stop>
            <stop stop-color="#35D6A3" offset="100%"></stop>
        </linearGradient>
        <linearGradient x1="-48.3833385%" y1="-25.9450605%" x2="73.8598647%" y2="172.089214%" id="linearGradient-12">
            <stop stop-color="#179BD1" offset="0%"></stop>
            <stop stop-color="#0D433F" offset="35.8671931%"></stop>
            <stop stop-color="#26B7AE" offset="73.1308143%"></stop>
            <stop stop-color="#35D6A3" offset="100%"></stop>
        </linearGradient>
        <linearGradient x1="-48.9042554%" y1="-25.9450605%" x2="73.9861971%" y2="172.089214%" id="linearGradient-13">
            <stop stop-color="#179BD1" offset="0%"></stop>
            <stop stop-color="#0D433F" offset="35.8671931%"></stop>
            <stop stop-color="#26B7AE" offset="73.1308143%"></stop>
            <stop stop-color="#35D6A3" offset="100%"></stop>
        </linearGradient>
        <linearGradient x1="-48.7328971%" y1="-25.9450605%" x2="73.9446394%" y2="172.089214%" id="linearGradient-14">
            <stop stop-color="#179BD1" offset="0%"></stop>
            <stop stop-color="#0D433F" offset="35.8671931%"></stop>
            <stop stop-color="#26B7AE" offset="73.1308143%"></stop>
            <stop stop-color="#35D6A3" offset="100%"></stop>
        </linearGradient>
        <linearGradient x1="-49.1864645%" y1="-25.9450605%" x2="74.0546383%" y2="172.089214%" id="linearGradient-15">
            <stop stop-color="#179BD1" offset="0%"></stop>
            <stop stop-color="#0D433F" offset="35.8671931%"></stop>
            <stop stop-color="#26B7AE" offset="73.1308143%"></stop>
            <stop stop-color="#35D6A3" offset="100%"></stop>
        </linearGradient>
        <linearGradient x1="-49.0171958%" y1="-25.9450605%" x2="74.0135874%" y2="172.089214%" id="linearGradient-16">
            <stop stop-color="#179BD1" offset="0%"></stop>
            <stop stop-color="#0D433F" offset="35.8671931%"></stop>
            <stop stop-color="#26B7AE" offset="73.1308143%"></stop>
            <stop stop-color="#35D6A3" offset="100%"></stop>
        </linearGradient>
        <linearGradient x1="-49.0469679%" y1="-25.9450605%" x2="74.0208077%" y2="172.089214%" id="linearGradient-17">
            <stop stop-color="#179BD1" offset="0%"></stop>
            <stop stop-color="#0D433F" offset="35.8671931%"></stop>
            <stop stop-color="#26B7AE" offset="73.1308143%"></stop>
            <stop stop-color="#35D6A3" offset="100%"></stop>
        </linearGradient>
        <linearGradient x1="-49.2569357%" y1="-25.9450605%" x2="74.0717289%" y2="172.089214%" id="linearGradient-18">
            <stop stop-color="#179BD1" offset="0%"></stop>
            <stop stop-color="#0D433F" offset="35.8671931%"></stop>
            <stop stop-color="#26B7AE" offset="73.1308143%"></stop>
            <stop stop-color="#35D6A3" offset="100%"></stop>
        </linearGradient>
        <linearGradient x1="-49.7992425%" y1="-25.9450605%" x2="74.2032488%" y2="172.089214%" id="linearGradient-19">
            <stop stop-color="#179BD1" offset="0%"></stop>
            <stop stop-color="#0D433F" offset="35.8671931%"></stop>
            <stop stop-color="#26B7AE" offset="73.1308143%"></stop>
            <stop stop-color="#35D6A3" offset="100%"></stop>
        </linearGradient>
        <linearGradient x1="-49.4659121%" y1="-25.9450605%" x2="74.1224097%" y2="172.089214%" id="linearGradient-20">
            <stop stop-color="#179BD1" offset="0%"></stop>
            <stop stop-color="#0D433F" offset="35.8671931%"></stop>
            <stop stop-color="#26B7AE" offset="73.1308143%"></stop>
            <stop stop-color="#35D6A3" offset="100%"></stop>
        </linearGradient>
        <linearGradient x1="-49.8063012%" y1="-25.9450605%" x2="74.2049607%" y2="172.089214%" id="linearGradient-21">
            <stop stop-color="#179BD1" offset="0%"></stop>
            <stop stop-color="#0D433F" offset="35.8671931%"></stop>
            <stop stop-color="#26B7AE" offset="73.1308143%"></stop>
            <stop stop-color="#35D6A3" offset="100%"></stop>
        </linearGradient>
        <linearGradient x1="-49.9587072%" y1="-25.9450605%" x2="74.2419221%" y2="172.089214%" id="linearGradient-22">
            <stop stop-color="#179BD1" offset="0%"></stop>
            <stop stop-color="#0D433F" offset="35.8671931%"></stop>
            <stop stop-color="#26B7AE" offset="73.1308143%"></stop>
            <stop stop-color="#35D6A3" offset="100%"></stop>
        </linearGradient>
    </defs>
    <g id="Unified-Headers" stroke="none" stroke-width="1" fill="none" fill-rule="evenodd">
        <g id="Assets" transform="translate(-1990.000000, -1283.000000)">
            <g id="brand/laser-lines/liquid" transform="translate(1991.000000, 1284.000000)">
                <g id="Group-45-Copy-2">
                    <path d="M253.04824,361.309253 C253.04824,361.309253 242.778476,366.211121 230.456251,374.501719 C213.48741,385.917893 221.897286,401.379443 228.730543,408.380338 C237.874683,417.74962 265.371708,427.976635 281.115532,396.208215 C296.858113,364.439795 310.001572,395.043882 313.190839,400.715351 C318.538173,410.222417 331.169759,435.570868 348.071509,426.614937 C364.780686,417.760791 361.559116,403.164423 359.505411,393.849758 C357.005682,382.509302 355.798059,378.321178 359.967588,376.330144 C366.414455,373.250495 381.255047,383.95665 384.969853,371.535028 C388.424997,359.981069 375.329992,352.375665 376.533887,346.375253 C377.812328,340.004936 404.471968,336.528073 403.99364,319.138795 C403.574948,303.965225 397.128081,296.668903 377.786237,302.044945 C358.444393,307.420986 358.431969,294.262036 363.934604,288.029502 C369.438482,281.795727 376.315223,282.98861 384.594646,273.888688 C392.87531,264.788767 389.966828,251.318252 377.63342,244.359561 C367.658108,238.732779 345.263662,246.755257 334.51557,256.660778 C323.766236,266.565058 324.520379,284.696629 309.449942,292.08729 C294.380747,299.476709 286.972254,275.007093 267.519836,285.262659 C250.080122,294.45816 261.963777,311.795304 261.545084,315.34292 C260.849334,321.248994 257.908549,319.832678 256.571716,329.611587 C255.529333,337.240576 259.686438,345.338773 259.804467,352.251536 C259.911315,358.565995 253.04824,361.309253 253.04824,361.309253 Z" id="Stroke-1" stroke="url(#linearGradient-1)" stroke-width="0.6378"></path>
                    <path d="M262.443388,278.205645 C271.402773,273.443384 278.485488,274.913679 285.781433,279.30089 C291.861594,282.935509 297.298326,287.699015 304.283779,287.013708 C306.093113,286.843005 307.946091,286.329647 309.873886,285.37894 C316.13361,282.287582 319.981719,277.409443 322.834756,271.783696 C327.416076,262.750104 330.962421,252.029411 338.364357,245.384425 C344.90714,239.530658 355.907794,233.485004 366.639105,231.645889 C376.047394,230.032303 383.244829,231.599787 387.927152,234.598939 C397.410259,240.673251 400.270779,250.505537 395.49244,260.476131 C394.542259,262.461029 393.078331,264.814747 390.947282,267.097442 C387.688984,270.588769 384.643915,273.008526 381.992885,274.941092 C377.346723,278.329 374.113364,279.842905 371.722948,283.624554 C369.821339,286.634921 368.884874,291.109352 371.366318,293.920357 C374.114611,297.034142 379.788265,298.899423 389.854948,297.24098 C393.736725,296.601776 397.014974,296.883375 399.754538,297.090213 C411.318817,297.964914 415.760477,306.298247 413.377542,319.147129 C411.610604,328.676634 404.782269,333.669407 398.916583,338.612339 C393.136938,343.485495 387.040566,346.397426 386.377185,350.28997 C386.019308,352.391993 386.933328,354.626094 388.004464,357.182912 C390.469697,363.076552 394.285386,367.896129 390.846278,375.454442 C390.34999,376.544703 389.753944,377.467998 389.098045,378.27666 C384.232419,384.299886 377.189607,382.962914 371.271549,382.678823 C369.357471,382.590356 367.690289,382.950454 366.329859,383.964708 C362.51043,386.809355 363.822229,391.837016 365.384666,403.768834 C366.755072,414.22911 368.706559,428.710269 351.636966,436.871652 C350.338884,437.492167 349.050778,437.907089 347.791351,438.169998 C331.906368,441.511804 319.999176,418.587662 314.820564,409.372153 C312.191979,404.693375 304.442142,387.014947 294.077437,387.690286 C289.461202,387.990575 284.124227,391.758518 279.327184,400.888052 C274.792002,409.488032 269.31412,416.200302 263.303788,420.263549 C248.602166,430.201747 230.789387,424.903701 221.253908,417.356602 C213.088834,410.90724 206.345292,397.092698 213.568913,386.178873 C215.044063,383.951002 216.983081,381.437795 219.954579,379.117719 C226.254205,374.199707 232.624908,370.313393 237.979341,367.476223 C242.243933,365.215956 244.992226,363.896428 245.350103,363.749399 C246.343927,363.339461 253.348084,360.471139 253.717183,354.029254 C253.806964,352.469246 253.743369,350.827001 253.496472,349.067631 C252.543797,342.276862 249.511198,334.658741 250.270595,328.286632 C251.227011,320.475379 253.096199,319.039972 254.779591,315.68446 C255.242212,314.763657 255.555198,313.682118 255.788379,312.254187 C256.20985,309.668711 252.553773,303.120914 252.007606,295.718353 C251.520045,289.109502 254.294524,282.540523 262.443388,278.205645 Z" id="Stroke-3" stroke="url(#linearGradient-2)" stroke-width="0.61455"></path>
                    <path d="M256.590311,272.449139 C265.731374,267.546228 273.552006,268.098598 282.445644,273.490432 C289.062719,277.472726 295.009632,282.758813 303.025469,281.80585 C305.062066,281.564498 307.116069,280.974805 309.214834,279.932268 C316.049494,276.535935 320.297999,271.083141 323.340461,264.643794 C328.075114,254.617769 332.912964,242.63481 340.944965,235.574667 C348.165062,229.264704 360.865817,222.042831 373.416129,220.737793 C384.710663,219.563383 391.867349,222.944787 396.634329,226.366002 C405.775392,232.923537 407.713765,242.760462 401.025819,254.595376 C399.998817,256.41173 398.222079,259.004388 395.691875,261.667959 C392.158292,265.386508 388.859701,268.260328 386.176565,270.696233 C381.5936,274.85643 379.320768,276.892986 378.030177,280.498324 C376.983282,283.420663 376.574222,287.682874 379.821836,289.897333 C383.812969,292.62062 390.212459,292.993843 400.325816,293.640764 C404.446258,293.904508 407.729928,294.497933 410.440417,295.065233 C421.466389,297.374242 425.933723,307.019578 421.008839,320.252836 C417.143283,330.638399 410.232779,335.226559 405.271838,341.322541 C400.535942,347.138606 395.322601,350.557332 394.644979,355.143003 C394.300573,357.471917 395.107503,359.936436 395.791342,362.764225 C397.447476,369.610386 399.57608,373.075144 395.112476,380.180073 C394.463451,381.213902 393.712471,382.10715 392.919218,382.940682 C387.056853,389.136191 381.251681,389.943597 375.774752,390.217294 C374.00423,390.3106 372.533355,391.008528 371.244007,392.367061 C367.806162,395.99106 369.13654,401.936509 369.822865,414.35614 C370.461944,425.948458 371.147027,440.179467 353.848386,447.617809 C352.498114,448.198793 351.149086,448.555844 349.828655,448.772313 C333.230017,451.546607 320.704573,428.236318 315.334571,418.663138 C312.38163,413.393223 304.156911,394.729565 293.471616,393.882348 C288.046907,393.451897 281.756831,397.028621 276.654149,406.237287 C271.801378,414.944589 265.894252,422.841996 259.197603,427.650357 C244.436627,438.249902 225.567643,435.10114 213.268487,426.926304 C202.721202,419.930853 196.078017,404.128575 202.564541,392.82115 C203.973249,390.36534 205.767394,387.323569 208.950354,384.520661 C215.239187,378.984514 222.165854,374.526983 228.718276,371.13687 C233.250263,368.791783 236.272832,367.346164 236.985268,367.052562 C238.967158,366.233959 246.110167,363.241951 246.910881,356.720494 C247.119762,355.023572 247.180686,353.220903 246.975535,351.215449 C246.176065,343.493457 242.566638,334.653039 243.271614,328.00593 C244.122061,319.990336 245.865229,317.989858 248.05973,314.037422 C248.635398,312.999861 249.003428,311.805546 249.296857,310.291503 C249.919772,307.07805 246.076597,300.112457 245.306967,291.968723 C244.574638,284.236778 248.221365,276.943993 256.590311,272.449139 Z" id="Stroke-5" stroke="url(#linearGradient-3)" stroke-width="0.5913"></path>
                    <path d="M251.093988,266.098653 C260.465207,261.039192 269.066189,260.674064 279.601489,267.08936 C286.792862,271.432271 293.2813,277.271835 302.368354,276.035632 C304.642922,275.726581 306.908765,275.053648 309.188318,273.917139 C316.632698,270.203545 321.311453,264.162101 324.553179,256.884453 C329.473724,245.83838 335.620665,232.550443 344.327586,225.050977 C352.261777,218.264322 366.733013,209.860135 381.164366,209.068815 C394.407959,208.342297 401.558203,213.521389 406.436372,217.389509 C415.2941,224.411691 419.182676,236.44224 407.677725,248.062798 C407.014673,249.929565 404.470896,252.557742 401.525799,255.609619 C397.702032,259.569955 394.126287,262.895989 391.400545,265.85191 C386.850163,270.783015 385.568927,273.220528 385.332122,276.80452 C385.148911,279.558561 385.3396,283.652238 389.280523,285.338309 C394.634793,287.627528 401.938337,287.481726 411.909045,289.51548 C416.227607,290.396524 419.57278,291.57291 422.292291,292.521248 C432.775244,296.172533 437.21844,307.260976 429.862551,320.919026 C423.785404,332.204364 416.852023,336.315487 412.765279,343.661674 C409.037481,350.363589 404.687759,354.377511 403.994795,359.671252 C403.660776,362.233382 404.346263,364.953777 404.667818,368.045531 C405.486662,375.906387 405.960271,377.989987 400.467657,384.660748 C399.658783,385.642732 398.750203,386.507576 397.815449,387.369927 C390.913226,393.742853 386.324208,396.701267 381.261581,397.544926 C379.625138,397.817837 378.337671,398.840945 377.117505,400.565648 C374.026586,404.934728 375.33898,411.887125 375.2131,424.81118 C375.08722,437.596909 374.531353,451.582703 356.929314,458.341942 C355.518459,458.882781 354.101372,459.183109 352.712951,459.355081 C335.314066,461.570775 322.104124,437.797543 316.514296,427.83564 C313.22147,421.957445 304.423566,402.031147 293.415904,399.875268 C287.114417,398.641557 279.876929,402.110902 274.442893,411.428533 C269.244416,420.271373 262.873133,429.364694 255.461158,434.947546 C240.532516,446.194253 220.536261,445.2347 205.410697,436.403076 C192.425096,428.840055 185.803299,410.945018 191.632425,399.259659 C192.979717,396.557957 194.644825,393.002627 198.052314,389.694039 C204.381221,383.551655 211.879194,378.472256 219.666316,374.524381 C224.487154,372.081883 227.802414,370.511706 228.873019,370.070561 C231.855507,368.841835 239.208904,365.710204 240.410374,359.091781 C240.744393,357.249939 240.925112,355.284725 240.758103,353.02666 C240.110007,344.348315 235.916078,334.258056 236.557942,327.313137 C237.320701,319.067214 238.929724,316.491375 241.651728,311.93163 C242.342199,310.775182 242.775925,309.465455 243.1249,307.857892 C243.959946,304.007219 239.890651,296.59997 238.902305,287.689837 C237.916451,278.808366 242.459355,270.768061 251.093988,266.098653 Z" id="Stroke-7" stroke="url(#linearGradient-4)" stroke-width="0.5679"></path>
                    <path d="M245.844859,259.213604 C255.40106,254.011705 264.73722,252.729283 276.86304,260.152386 C284.593033,264.843808 291.592045,271.223543 301.70394,269.704558 C304.205185,269.329793 306.671622,268.576526 309.121898,267.347642 C317.139062,263.326068 322.227331,256.71226 325.651005,248.613084 C330.736788,236.578244 338.15599,222.014668 347.494636,214.094782 C356.104789,206.848478 372.274621,197.292571 388.512827,197.00745 C403.642131,196.741006 410.751785,203.682267 415.714495,208.000168 C424.260003,215.439457 428.120027,228.328414 413.798779,241.041817 C413.174711,242.80359 410.208522,245.612467 406.860682,249.042633 C402.768187,253.237271 398.928054,257.001116 396.175689,260.474859 C391.671706,266.156111 390.527996,269.133072 392.214969,272.549542 C392.244805,275.104424 393.714225,278.98655 398.301499,280.195513 C405.027015,281.968491 412.794303,283.544749 422.941006,284.797289 C427.621518,285.376246 430.815206,288.029489 433.541464,289.376654 C443.404726,294.2511 447.744611,306.833771 438.077769,320.91675 C429.752301,333.046215 422.858957,336.63824 419.705051,345.274041 C416.960145,352.78928 413.532742,357.444594 412.834084,363.434622 C412.508375,366.222333 413.055367,369.199293 413.030504,372.539814 C412.96586,381.412178 411.81096,382.089496 405.329104,388.312353 C404.363166,389.238684 403.30399,390.075371 402.232383,390.963105 C394.335806,397.50719 390.973048,402.606994 386.350965,404.011432 C384.855439,404.465882 383.75151,405.800596 382.615258,407.896048 C379.86165,412.973441 381.124704,420.9506 380.234599,434.337585 C379.307199,448.296058 377.534447,461.970654 359.733584,468.049083 C358.266651,468.550846 356.789772,468.793634 355.341486,468.919386 C337.228589,470.571593 323.397149,446.394837 317.61768,436.070722 C314.000073,429.598852 304.675101,408.318127 293.398362,405.000017 C286.25017,402.89834 278.122365,406.329751 272.36403,415.721309 C266.865516,424.688298 260.034331,434.931484 251.95128,441.287562 C236.906511,453.118211 215.904501,454.386937 198.026562,444.920675 C182.669759,436.809048 176.058614,416.825685 181.242607,404.833178 C182.51685,401.884853 184.055887,397.839623 187.664792,394.024731 C194.018602,387.313807 202.033279,381.598939 211.018867,377.107974 C216.100921,374.568032 219.694908,372.882209 221.119574,372.294536 C225.085266,370.65727 232.642459,367.392698 234.210089,360.69796 C234.673789,358.714565 234.967176,356.590476 234.840373,354.086642 C234.345594,344.472217 229.590492,333.158272 230.164834,325.933134 C230.837385,317.480359 232.298103,314.331578 235.536545,309.176991 C236.338385,307.90204 236.840623,306.482661 237.238436,304.786877 C238.291396,300.308362 234.003724,292.476876 232.806557,282.821364 C231.565879,272.813496 236.987317,264.045718 245.844859,259.213604 Z" id="Stroke-9" stroke="url(#linearGradient-5)" stroke-width="0.54465"></path>
                    <path d="M240.853719,252.983292 C250.624492,247.629582 260.727428,245.428045 274.479163,253.870385 C282.772005,258.917599 290.303488,265.851133 301.47133,264.045798 C304.208242,263.602251 306.881706,262.767486 309.510385,261.444321 C318.12668,257.109772 323.641557,249.914596 327.25428,240.980118 C332.526566,227.937849 341.237409,212.074821 351.235844,203.723433 C360.547563,196.004971 378.466868,185.290076 396.562829,185.503128 C413.621251,185.703721 420.719804,194.398983 425.77687,199.187045 C434.054783,207.025115 437.885215,220.821165 420.70612,234.647117 C420.118928,236.305434 416.720181,239.301867 412.96066,243.115621 C408.586578,247.551089 404.463794,251.752325 401.679609,255.754213 C397.203515,262.185642 396.815371,265.701623 399.811045,268.970911 C400.521398,271.400451 402.801743,274.967515 408.051636,275.739984 C416.167823,276.936065 424.632343,278.681596 434.77882,280.773492 C439.757511,281.800129 442.886298,285.159124 445.631918,286.933311 C454.916268,292.932406 459.112451,307.094755 447.153392,321.66452 C436.515515,334.622067 429.628451,337.705714 427.44763,347.674304 C425.628828,355.989561 423.155655,361.317106 422.450279,368.012669 C422.131802,371.030282 422.52741,374.268423 422.171611,377.864143 C421.190055,387.760469 418.428263,387.027869 410.950274,392.81765 C409.823165,393.689793 408.611459,394.499639 407.399754,395.414143 C398.486131,402.1421 396.335168,409.390851 392.137741,411.35691 C390.777993,411.993574 389.843711,413.635694 388.796221,416.111333 C386.347929,421.892392 387.550926,430.922805 385.934904,444.789873 C384.168352,459.946465 381.197559,473.310181 363.151361,478.736154 C361.624911,479.195898 360.083532,479.382785 358.570766,479.465016 C339.684834,480.553948 325.1904,455.938347 319.20154,445.234665 C315.247947,438.159097 305.392578,415.402405 293.783097,411.006807 C285.782608,407.976734 276.707258,411.421697 270.622606,420.911855 C264.790497,430.007056 257.48792,441.415927 248.714875,448.565004 C233.488939,460.973101 211.431921,464.496557 190.748335,454.380949 C172.97334,445.70936 166.311448,423.575627 170.90946,411.287138 C172.108724,408.080145 173.539383,403.552479 177.354886,399.220423 C183.765479,391.94177 192.307131,385.565162 202.52203,380.527915 C207.881401,377.885323 211.766571,376.08248 213.549295,375.347388 C218.508081,373.299099 226.315743,369.898989 228.231581,363.114965 C228.832457,360.986938 229.233042,358.701924 229.145958,355.947199 C228.8026,345.384307 223.471843,332.827945 223.98066,325.310076 C224.567852,316.635995 225.880325,312.908209 229.648555,307.15456 C230.562932,305.760377 231.136439,304.227898 231.584297,302.440006 C232.863181,297.330496 228.332349,289.061339 226.927816,278.645464 C225.423759,267.495744 231.74478,257.985653 240.853719,252.983292 Z" id="Stroke-11" stroke="url(#linearGradient-6)" stroke-width="0.5214"></path>
                    <path d="M234.868571,247.1575 C244.848061,241.661818 255.710911,238.546851 271.082635,247.991311 C279.932418,253.386189 287.992153,260.859372 300.211149,258.769867 C303.180984,258.262114 306.059994,257.344922 308.865598,255.931178 C318.074946,251.290462 324.017103,243.528558 327.814311,233.774219 C333.274974,219.751269 343.26815,202.617085 353.920736,193.848385 C363.93133,185.673308 383.587976,173.824488 403.532025,174.530115 C422.511843,175.202142 429.601125,185.617306 434.743281,190.877779 C442.760714,199.080235 446.54548,213.777701 426.518071,228.690464 C425.966904,230.243592 422.139836,233.422028 417.968133,237.609748 C413.31618,242.281575 408.909329,246.908602 406.099993,251.432335 C401.645863,258.600616 402.021603,262.651442 406.325187,265.766409 C407.717414,268.067477 410.81913,272.282576 416.715253,271.647884 C426.170947,270.628644 435.374075,274.226474 445.516551,277.102498 C450.790589,278.598379 453.861201,282.613114 456.61455,284.830802 C465.346137,291.864678 469.342412,307.626185 455.117813,322.687043 C442.15107,336.417538 435.24717,339.014796 434.091335,350.303594 C433.159452,359.397107 431.681378,365.391831 430.970956,372.780388 C430.659914,376.023538 430.896306,379.514341 430.216989,383.359826 C428.291014,394.255364 423.943883,392.112347 415.479792,397.467402 C414.190832,398.283789 412.82971,399.065331 411.477297,400.004923 C401.55255,406.905639 400.613202,416.290363 396.845854,418.811706 C395.622835,419.629338 394.850205,421.575726 393.900903,424.42686 C391.743512,430.89947 392.871974,440.964932 390.559062,455.28905 C387.923909,471.613068 383.778334,484.626735 365.506449,489.408078 C363.918888,489.823739 362.317641,489.954411 360.740033,489.99299 C341.090852,490.479587 325.941835,465.507584 319.747111,454.445283 C315.460944,446.780449 305.111936,422.537719 293.145506,417.122929 C284.321851,413.12935 274.277664,416.623887 267.871432,426.195285 C261.709056,435.400802 253.931748,447.946539 244.481031,455.883917 C229.069493,468.830381 205.98267,474.616031 182.505177,463.871075 C162.319759,454.654358 155.576356,430.391717 159.619909,417.850957 C160.737174,414.386288 162.072169,409.39587 166.087106,404.547324 C172.560524,396.726928 181.611863,389.685585 193.050764,384.116477 C198.684367,381.373614 202.858558,379.459584 204.997287,378.578482 C210.950642,376.123097 219.019086,372.596203 221.264813,365.731578 C222.007583,363.464111 222.511472,361.022415 222.464194,358.021942 C222.272591,346.527802 216.370248,332.754994 216.811928,324.958244 C217.313329,316.080028 218.474139,311.77906 222.772748,305.435877 C223.797944,303.923818 224.446157,302.282331 224.940092,300.405635 C226.449271,294.674744 221.670413,285.983202 220.061701,274.825075 C218.292491,262.555616 225.513655,252.320903 234.868571,247.1575 Z" id="Stroke-13" stroke="url(#linearGradient-7)" stroke-width="0.5"></path>
                    <path d="M230.011856,240.072348 C240.212247,234.419424 251.846348,230.379839 268.856549,240.85533 C278.27469,246.614231 286.871967,254.65101 300.15527,252.269649 C303.361499,251.696128 306.450639,250.693713 309.436393,249.185103 C319.249396,244.224144 325.626976,235.871928 329.611718,225.268019 C335.266838,210.221813 346.554656,191.764403 357.873615,182.551906 C368.592184,173.895475 390.010639,160.879036 411.827692,162.077197 C432.75039,163.225486 439.846693,175.380397 445.072074,181.139298 C452.852223,189.713441 456.579121,205.375559 433.677132,221.419193 C433.16269,222.871698 428.902666,226.241758 424.315044,230.817461 C419.379893,235.737276 414.680165,240.804211 411.845131,245.864913 C407.403246,253.789481 409.101028,257.522356 414.168214,261.358715 C416.567281,263.176528 420.188301,267.360739 426.721584,266.369545 C437.46382,264.741243 447.468649,268.634954 457.62918,272.263099 C463.198352,274.252969 466.232685,278.899738 468.984262,281.585314 C477.215326,289.619598 480.962154,307.055892 464.465148,322.681853 C449.137781,337.199421 442.184724,339.35262 442.092548,351.986296 C442.020302,361.895746 441.563159,368.567294 440.849418,376.672646 C440.542995,380.14993 440.616487,383.899014 439.618745,388.010912 C436.726412,399.928933 430.802238,396.371854 421.345483,401.315358 C419.891843,402.07465 418.382151,402.836436 416.88616,403.801448 C405.952098,410.915605 406.211187,422.447123 402.869186,425.529177 C401.780513,426.531592 401.165176,428.787027 400.318154,432.022435 C398.437266,439.206412 399.481096,450.332724 396.491606,465.160743 C392.956533,482.698026 387.648941,495.38656 369.140258,499.55581 C367.491055,499.927352 365.82566,500.0059 364.182686,500 C343.752009,499.921118 327.928884,474.48171 321.520163,463.026246 C316.896418,454.747591 306.071971,428.915446 293.705444,422.495748 C284.071811,417.493645 273.023152,421.080646 266.288079,430.761935 C259.787182,440.106591 251.519995,453.81749 241.389359,462.576157 C225.763042,476.086323 201.63287,484.167985 175.331581,472.761146 C152.712348,462.970141 145.846484,436.490913 149.372838,423.67396 C150.400475,419.937344 151.654815,414.477671 155.86626,409.092805 C162.419473,400.711914 171.98086,392.976858 184.660037,386.860129 C190.571755,384.008731 195.042289,381.978964 197.539759,380.947873 C204.492816,378.079019 212.845951,374.419704 215.411931,367.450174 C216.300059,365.036398 216.904185,362.428123 216.896711,359.174013 C216.858097,346.714887 210.37713,331.681149 210.749571,323.583278 C211.169345,314.473018 212.177053,309.584372 217.010063,302.634791 C218.14856,301.000255 218.872266,299.246028 219.414111,297.273614 C221.160472,290.906281 216.120689,281.763604 214.308311,269.830621 C212.269229,256.40399 220.401889,245.41233 230.011856,240.072348 Z" id="Stroke-15" stroke="url(#linearGradient-8)" stroke-width="0.5"></path>
                    <path d="M224.910085,234.261857 C235.295304,228.466721 247.662863,223.515828 266.250864,234.991541 C276.204816,241.09673 285.309904,249.672385 299.610088,247.007669 C303.042828,246.367639 306.331398,245.28432 309.486983,243.684245 C319.869717,238.419562 326.661869,229.502723 330.820431,218.081799 C336.653106,202.058635 349.190935,182.333507 361.138411,172.706908 C372.529093,163.594574 395.632353,149.454144 419.246423,151.137647 C442.038972,152.762626 449.126921,166.60919 454.410259,172.857576 C461.940661,181.763208 465.583442,198.354181 439.888849,215.480587 C439.411596,216.827888 434.734767,220.380428 429.744741,225.327586 C424.545917,230.483937 419.565834,235.971509 416.715989,241.553717 C412.300158,250.210309 414.625522,254.493779 421.126849,258.162122 C424.11465,259.849361 428.624937,263.611094 435.799886,262.284961 C447.805776,260.066025 458.550178,264.258595 468.706714,268.599343 C474.543118,271.094713 477.557019,276.328266 480.280094,279.486079 C488.027994,288.465178 491.465706,307.534088 472.757148,323.697959 C455.118681,338.93665 448.117731,340.674942 449.115736,354.601198 C449.882572,365.307381 450.464223,372.621654 449.752073,381.418954 C449.451304,385.119672 449.356848,389.114256 448.048131,393.481154 C444.186609,406.375144 436.720835,401.416779 426.305787,405.940571 C424.693816,406.64037 423.037103,407.378771 421.405246,408.367455 C409.485112,415.654334 410.956642,429.317854 408.049625,432.950087 C407.100091,434.136757 406.63651,436.693142 405.900745,440.302961 C404.292503,448.178817 405.24328,460.3232 401.604227,475.61668 C397.157325,494.303315 390.725598,506.62078 372.048112,510.179546 C370.341684,510.504542 368.6191,510.530691 366.916401,510.479638 C345.773109,509.838363 329.331502,484.009291 322.731991,472.19613 C317.785465,463.329099 306.548896,435.970929 293.798541,428.581944 C283.412079,422.562674 271.372632,426.25343 264.334396,436.014511 C257.516144,445.469273 248.782667,460.29705 238.010922,469.857655 C222.215595,483.878546 197.133725,494.243545 168.100847,482.20874 C143.127104,471.87487 136.134854,443.252827 139.15994,430.206923 C140.087103,426.207358 141.26905,420.3014 145.657538,414.392952 C152.275692,405.482339 162.305457,397.06856 176.180588,390.427937 C182.351317,387.474335 187.101473,385.336336 189.950076,384.159627 C197.878189,380.884765 206.498568,377.10809 209.36457,370.050327 C210.399861,367.501414 211.097097,364.733346 211.129411,361.233104 C211.24251,347.847262 204.208003,331.599963 204.510014,323.224785 C204.845583,313.913219 205.695689,308.449306 211.048626,300.915878 C212.2952,299.162644 213.09435,297.302324 213.678488,295.240281 C215.660827,288.255985 210.372518,278.691645 208.364079,266.018055 C206.0586,251.475427 215.076689,239.761882 224.910085,234.261857 Z" id="Stroke-17" stroke="url(#linearGradient-9)" stroke-width="0.5"></path>
                    <path d="M218.561757,227.95108 C229.158827,222.0163 242.289843,216.154897 262.50298,228.628879 C273.016746,235.078537 282.660166,244.223222 298.008076,241.243395 C301.677201,240.545698 305.171013,239.374163 308.504434,237.68402 C319.483212,232.114878 326.708318,222.635646 331.047608,210.397961 C337.075368,193.400761 350.893957,172.410146 363.499037,162.370021 C375.590613,152.802489 400.436471,137.541449 425.908977,139.707917 C450.625527,141.809715 457.735,157.335656 463.078918,164.07882 C470.392301,173.30683 473.950768,190.833832 445.399728,209.04112 C444.958338,210.2823 439.853144,214.018276 434.448303,219.337441 C428.971347,224.727495 423.695814,230.636158 420.82865,236.740076 C416.420975,246.126033 419.413718,250.999964 427.333856,254.459846 C430.93957,256.035573 436.176559,258.529126 444.161351,257.698356 C457.685266,256.289281 468.952502,259.40218 479.150456,264.43157 C485.259034,267.446219 488.28659,273.244196 490.972226,276.879435 C498.298042,286.790219 501.395227,307.483598 480.429863,324.199729 C460.436799,340.142298 453.353436,341.500383 455.460914,356.69924 C457.057375,368.214355 458.687406,376.158901 457.973724,385.645594 C457.67905,389.570608 457.414216,393.805295 455.794131,398.431737 C450.945067,412.28992 441.929538,405.938512 430.531751,410.047588 C428.755005,410.688077 426.949661,411.401942 425.176644,412.415531 C412.242077,419.875046 414.928955,435.667133 412.445986,439.848342 C411.634079,441.217619 411.318268,444.075567 410.694106,448.056545 C409.348802,456.6279 410.199253,469.778437 405.915913,485.543162 C400.529722,505.368461 392.973886,517.30891 374.083673,520.275056 C372.313143,520.552394 370.530179,520.532495 368.763379,520.431758 C346.850584,519.27266 329.749551,493.008896 322.942211,480.839613 C317.661705,471.386498 306.006544,442.494866 292.818334,434.147371 C281.67419,427.094535 268.591664,430.907618 261.231033,440.75 C254.078042,450.315045 244.848657,466.250153 233.4173,476.617363 C217.402955,491.142152 191.312504,503.790247 159.477777,491.129715 C132.088026,480.253845 124.926331,449.488006 127.482658,436.216833 C128.303269,431.95603 129.430987,425.605865 134.001541,419.173618 C140.709413,409.736671 151.225665,400.640489 166.333608,393.47821 C172.777889,390.42252 177.819673,388.176457 181.026271,386.855682 C189.949793,383.175671 198.86461,379.287967 202.031422,372.135637 C203.218821,369.453047 204.008348,366.522967 204.080462,362.779529 C204.345296,348.46865 196.739726,331.008806 196.972232,322.357857 C197.227119,312.84256 197.918421,306.805799 203.805682,298.690871 C205.16342,296.819151 206.038738,294.85167 206.669117,292.701369 C208.893469,285.102563 203.338183,275.114671 201.129994,261.701721 C198.552529,246.047682 208.479434,233.612253 218.561757,227.95108 Z" id="Stroke-19" stroke="url(#linearGradient-10)" stroke-width="0.5"></path>
                    <path d="M213.716131,221.874617 C224.522976,215.783809 238.413584,208.996874 260.244879,222.501007 C271.31658,229.312848 281.488021,239.018788 297.885429,235.747361 C301.787383,234.983986 305.487897,233.727469 308.99692,231.942941 C320.569732,226.055119 328.226913,215.989285 332.745619,202.903577 C338.967855,184.890179 354.062125,162.57922 367.321058,152.098698 C380.108724,142.052789 406.690007,125.633387 434.013632,128.285896 C460.647141,130.872403 467.785801,148.109973 473.179898,155.370125 C480.286229,164.93659 483.74427,183.453093 452.344608,202.787763 C451.94173,203.927221 446.40961,207.854926 440.591496,213.558442 C434.838041,219.198447 429.26613,225.542052 426.383808,232.183286 C421.983229,242.321348 425.673796,247.815652 434.982281,251.059682 C439.222454,252.536619 445.270607,254.642437 453.95861,253.420789 C468.81165,251.33116 480.769932,254.872819 491.020954,260.591279 C497.389918,264.144146 500.455028,270.506431 503.088661,274.63214 C510.025882,285.498708 512.747799,307.858234 489.528811,325.182975 C467.18397,341.85642 460.010493,342.86263 463.238496,359.360486 C465.657011,371.726406 468.341625,380.309077 467.629126,390.509404 C467.338158,394.667491 466.90295,399.15185 464.974355,404.052141 C459.131372,418.901208 448.576947,411.142932 436.197135,414.853953 C434.258592,415.435513 432.302641,416.12915 430.390211,417.170228 C416.443649,424.818917 420.346846,442.781257 418.288932,447.522149 C417.614981,449.076295 417.443384,452.245607 416.933569,456.607925 C415.845548,465.899176 416.591619,480.078267 411.675008,496.361929 C405.333401,517.36905 396.670267,528.955407 377.574568,531.351381 C375.742962,531.580518 373.900165,531.512026 372.06856,531.36508 C349.394204,529.641572 331.637703,502.920973 324.625874,490.363275 C319.011686,480.298686 306.960145,449.796083 293.318228,440.473699 C281.438283,432.356774 267.297741,436.314366 259.618179,446.263141 C252.132595,455.960364 242.405066,473.038534 230.322438,484.246316 C214.087923,499.30584 187.004284,514.276947 152.375376,500.95712 C122.577281,489.511484 115.228477,456.523244 117.336129,442.994205 C118.04241,438.457543 119.126701,431.651929 123.875446,424.676952 C130.6734,414.690818 141.666764,404.886499 158.004486,397.185507 C164.719129,394.019931 170.05354,391.661315 173.616032,390.190605 C183.531322,386.096028 192.745305,382.091114 196.205833,374.82349 C197.548761,372.001619 198.426639,368.900799 198.53855,364.903357 C198.955106,349.630885 190.783137,330.916379 190.943542,321.966342 C191.116382,312.223043 191.648579,305.596753 198.069768,296.878343 C199.537042,294.884603 200.49077,292.807427 201.164721,290.56089 C203.634218,282.329396 197.81113,271.89246 195.405049,257.707143 C192.553813,240.899205 203.389258,227.710135 213.716131,221.874617 Z" id="Stroke-21" stroke="url(#linearGradient-11)" stroke-width="0.5"></path>
                    <path d="M208.875486,215.065069 C219.888279,208.833678 234.535119,201.139588 257.98175,215.638457 C269.60747,222.795229 280.304475,233.037846 297.747406,229.484336 C301.882488,228.654727 305.787566,227.318896 309.472587,225.44326 C321.635395,219.251669 329.724041,208.624721 334.419833,194.724115 C340.835052,175.738893 357.200077,152.164083 371.110908,141.26972 C384.592814,130.772126 412.901834,113.237164 442.068702,116.369029 C470.612698,119.43373 477.788792,138.331886 483.221836,146.098116 C490.130629,155.972571 493.477484,175.436652 459.238116,195.849746 C458.871355,196.88458 452.914898,200.995308 446.683682,207.068739 C440.657603,212.943162 434.788174,219.704409 431.892623,226.8674 C427.498944,237.7344 431.910029,243.838925 442.582168,246.851386 C447.468178,248.23075 454.307349,249.939718 463.703904,248.330253 C479.872495,245.561575 492.510228,249.53673 502.829282,255.919864 C509.445909,260.01318 512.571463,266.912487 515.138794,271.518244 C521.714394,283.319331 524.033073,307.273497 498.566145,325.171646 C473.875011,342.523771 466.606915,343.199149 470.96081,360.94058 C474.198258,374.134713 477.937983,383.325083 477.226838,394.214471 C476.940889,398.595102 476.334178,403.314044 474.098797,408.478263 C467.259627,424.274406 455.172658,415.132544 441.813834,418.439783 C439.712725,418.959688 437.607887,419.630091 435.556509,420.69602 C420.60134,428.516976 425.721083,448.604197 424.088683,453.891551 C423.551595,455.627883 423.523,459.100547 423.128886,463.831927 C422.295903,473.822054 422.932451,488.985107 417.392487,505.75265 C410.080878,527.878444 400.327507,539.07878 381.030876,540.910884 C379.137391,541.08999 377.235204,540.974317 375.340477,540.782773 C351.910008,538.499173 333.50355,511.388266 326.286429,498.473987 C320.341162,487.823407 307.91354,455.785844 293.803787,445.51462 C281.207082,436.344151 265.997045,440.443685 257.999156,450.474858 C250.18154,460.280904 239.953244,478.453931 227.228483,490.477656 C210.7727,506.030016 182.706116,523.2901 145.292707,509.344718 C113.093528,497.35955 105.54197,462.232412 107.217884,448.478574 C107.802216,443.680029 108.854013,436.436192 113.774835,428.93489 C120.667465,418.426102 132.130318,407.933483 149.692602,399.717001 C156.678478,396.448319 162.301741,393.983126 166.220495,392.367441 C177.125124,387.86865 186.639789,383.761653 190.38946,376.392193 C191.890074,373.440678 192.8536,370.174483 193.005278,365.933157 C193.573447,349.737757 184.837063,329.813473 184.924091,320.588277 C185.018579,310.642926 185.390313,303.443865 192.341377,294.145286 C193.920317,292.033329 194.952222,289.849232 195.669583,287.513393 C198.384862,278.672529 192.291647,267.811748 189.689505,252.887503 C186.56395,234.969453 198.305293,221.060141 208.875486,215.065069 Z" id="Stroke-23" stroke="url(#linearGradient-12)" stroke-width="0.5"></path>
                    <path d="M202.78681,209.371642 C214.030521,202.99365 229.46602,194.381869 254.578137,209.894021 C266.784775,217.402589 278.030977,228.194678 296.55831,224.352709 C300.934463,223.458447 305.052755,222.039319 308.923153,220.07045 C321.702814,213.569326 330.240859,202.369284 335.124013,187.638212 C341.747413,167.660969 359.420194,142.795755 374.012353,131.476312 C388.217098,120.511341 418.317007,101.843774 449.394792,105.456892 C479.913257,109.00409 487.152034,129.578338 492.625651,137.863011 C499.358672,148.054365 502.593762,168.491799 465.435703,190.005084 C465.104346,190.936659 458.711401,195.235087 452.053121,201.685217 C445.738655,207.800776 439.558725,214.989698 436.643781,222.679854 C432.246452,234.286606 437.406151,241.009118 449.452094,243.795137 C455.005436,245.079939 462.637855,246.392104 472.767907,244.394628 C490.28373,240.940712 503.618975,245.362272 514.043013,252.410649 C520.909325,257.054842 524.126975,264.49376 526.620871,269.584462 C532.871806,282.342933 534.771502,307.898432 506.993583,326.399335 C479.903291,344.441291 472.517521,344.804468 478.013561,363.80163 C482.075796,377.846147 486.882962,387.645718 486.172912,399.235056 C485.890137,403.844424 485.110328,408.8008 482.56162,414.237267 C474.707466,430.99069 461.067024,420.461033 446.694109,423.370183 C444.426931,423.82913 442.168472,424.479616 439.973544,425.571635 C423.976233,433.572731 430.326824,455.803665 429.11351,461.645597 C428.714885,463.564716 428.826998,467.348228 428.550453,472.451368 C427.969955,483.15515 428.49315,499.310325 422.32194,516.586126 C414.013105,539.846891 403.159299,550.672562 383.61921,551.954877 C381.660966,552.082984 379.694002,551.921295 377.73202,551.683737 C353.495633,548.839263 334.397768,521.304944 326.960924,508.020364 C320.670127,496.771815 307.851848,463.164226 293.231039,451.930602 C279.903268,441.690741 263.573354,445.944394 255.243342,456.069829 C247.076516,465.995019 236.317384,485.278246 222.929819,498.138705 C206.211247,514.196867 177.106654,533.767401 136.823127,519.180605 C102.150245,506.641036 94.3646043,469.340729 95.6265009,455.342231 C96.082428,450.27516 97.1151154,442.587491 102.215021,434.549082 C109.220852,423.50824 121.172122,412.313173 140.00216,403.572041 C147.27208,400.197725 153.199132,397.623146 157.481857,395.859497 C169.401984,390.952871 179.241788,386.741506 183.284093,379.257813 C184.948351,376.17578 185.997233,372.738032 186.189071,368.249309 C186.911578,351.111566 177.591232,329.957727 177.604935,320.444221 C177.619883,310.285204 177.830407,302.504253 185.329536,292.616376 C187.022446,290.38383 188.133612,288.092827 188.897228,285.665011 C191.868228,276.203743 185.48774,264.905444 182.683664,249.227872 C179.275422,230.179716 191.950445,215.53322 202.78681,209.371642 Z" id="Stroke-25" stroke="url(#linearGradient-13)" stroke-width="0.5"></path>
                    <path d="M197.457532,203.295436 C208.902588,196.762892 225.088509,187.226149 251.805674,203.766048 C264.561689,211.634483 276.330438,222.986443 295.896466,218.855515 C300.502874,217.893126 304.825428,216.390404 308.870352,214.32743 C322.235159,207.508535 331.20147,195.723312 336.259803,180.145803 C343.076042,159.153765 362.010868,132.971298 377.248118,121.214711 C392.143,109.77311 423.958338,89.9513769 456.869254,94.0486901 C489.285915,98.0849981 496.578979,120.353167 502.070564,129.169051 C508.621623,139.685613 511.725346,161.119628 471.740481,183.757564 C471.445422,184.585493 464.630428,189.077473 457.56146,195.910063 C450.976787,202.274531 444.497937,209.896455 441.574735,218.124697 C437.182463,230.483867 443.08987,237.828154 456.470862,240.394111 C462.684532,241.584336 471.081889,242.50066 481.923132,240.11274 C500.738441,235.968116 514.730715,240.844803 525.24702,248.565082 C532.337153,253.771695 535.656257,261.753426 538.061548,267.332296 C543.99012,281.074667 545.449231,308.243178 515.426657,327.370198 C486.000426,346.116246 478.514391,346.182231 485.141393,366.445941 C490.02045,381.363598 495.883038,391.776824 495.175892,404.078724 C494.898263,408.92055 493.947102,414.119693 491.092374,419.835514 C482.238111,437.560658 467.079294,425.63226 451.728752,428.148416 C449.30105,428.546818 446.893269,429.17679 444.55894,430.29605 C427.560051,438.485697 435.127009,462.887805 434.337695,469.289624 C434.07874,471.394928 434.32898,475.490996 434.172113,480.972756 C433.84344,492.403152 434.249302,509.560573 427.466677,527.367887 C418.169204,551.782446 406.253547,562.239247 386.518202,562.98376 C384.498853,563.060951 382.473278,562.853035 380.447704,562.570419 C355.466034,559.160348 335.724464,531.176359 328.086542,517.504953 C321.46701,505.648766 308.302643,470.433784 293.194871,458.22526 C279.181431,446.899444 261.760495,451.316724 253.116633,461.545689 C244.620923,471.601599 233.353899,492.01222 219.340459,505.725956 C202.397593,522.30445 172.33269,544.210322 129.277717,528.967719 C92.2160541,515.860301 84.2033945,476.351295 85.0599373,462.088512 C85.3798959,456.749928 86.3995305,448.607592 91.6632851,440.023279 C98.7671129,428.438502 111.17578,416.526289 131.224858,407.254733 C138.761937,403.768717 144.976853,401.081995 149.614385,399.170912 C162.519797,393.849758 172.662609,389.534569 176.985162,381.92385 C178.81154,378.709246 179.941978,375.094995 180.173543,370.352769 C181.047516,352.256613 171.167394,329.847759 171.107635,320.03836 C171.044141,309.653769 171.09145,301.283597 179.120294,290.794425 C180.921773,288.44012 182.111969,286.038504 182.917468,283.514878 C186.138219,273.424108 179.485072,261.677481 176.485927,245.227222 C172.804536,225.030743 186.382234,209.630024 197.457532,203.295436 Z" id="Stroke-27" stroke="url(#linearGradient-14)" stroke-width="0.5"></path>
                    <path d="M192.759627,196.483164 C204.416856,189.810196 221.368411,179.369226 249.715655,196.901002 C263.034288,205.113504 275.335405,217.001984 295.958489,212.587329 C300.800723,211.561388 305.330354,209.977086 309.552363,207.824475 C323.51613,200.70258 332.921621,188.358956 338.157411,171.967528 C345.172921,150.007418 365.388749,122.56443 381.285424,110.394905 C396.88195,98.5002076 430.442566,77.5697686 465.219967,82.1423564 C499.565204,86.6577401 506.929435,110.56776 512.434238,119.899471 C518.817069,130.717241 521.783685,153.10265 478.933403,176.816187 C478.675599,177.539942 471.43342,182.215746 463.945892,189.415986 C457.08357,196.015584 450.302201,204.05523 447.366721,212.801222 C442.974088,225.888498 449.645859,233.834877 464.365602,236.175265 C471.247851,237.270846 480.412974,237.788169 491.978042,235.015019 C512.107935,230.188745 526.760425,235.511202 537.390174,243.885367 C544.700851,249.646803 548.14073,258.15403 550.45474,264.205216 C556.079104,278.9141 557.087903,307.619306 524.790154,327.337269 C493.004276,346.741854 485.408396,346.521743 493.17241,368.001838 C498.8715,383.765265 505.794848,394.763352 505.09118,407.752387 C504.817185,412.816182 503.693806,418.244343 500.529168,424.228376 C490.667849,442.881848 473.97908,429.58441 457.63405,431.704688 C455.043555,432.04045 452.484195,432.649797 450.009525,433.792633 C431.991881,442.154363 440.78213,468.670895 440.415973,475.621179 C440.295167,477.906851 440.684986,482.310314 440.647623,488.156312 C440.569161,500.291017 440.85561,518.404782 433.460244,536.712542 C423.155552,562.2193 410.178166,572.28347 390.227615,572.5 C388.145255,572.52099 386.059159,572.271034 383.968081,571.943976 C358.216315,567.975761 337.813672,539.601343 329.966215,525.575176 C323.011731,513.13331 309.497564,476.392189 293.881111,463.231543 C279.176313,450.840663 260.618153,455.398328 251.673471,465.727377 C242.820951,475.872379 231.051633,497.379832 216.402879,511.922078 C199.215938,528.983787 168.164865,553.179827 122.299396,537.313184 C82.8142672,523.666304 74.5570629,482.04046 75.0178722,467.538007 C75.1959688,461.940722 76.2147309,453.361369 81.6435625,444.248526 C88.8558505,432.14491 101.727375,419.540137 123.018009,409.758257 C130.829349,406.169329 137.337969,403.377526 142.332146,401.320669 C156.236132,395.597784 166.694012,391.191834 171.299614,383.468053 C173.289812,380.129082 174.502861,376.344914 174.773119,371.359463 C175.799354,352.341627 165.350192,328.727575 165.216931,318.643508 C165.074952,308.057041 164.957882,299.113323 173.525198,288.04684 C175.438179,285.574633 176.707273,283.06885 177.555411,280.454877 C181.031408,269.757733 174.096851,257.586964 170.901076,240.399655 C166.940607,219.09739 181.436173,202.97706 192.759627,196.483164 Z" id="Stroke-29" stroke="url(#linearGradient-15)" stroke-width="0.5"></path>
                    <path d="M186.946863,189.901921 C198.803952,183.075196 216.501229,171.708107 246.443863,190.267839 C260.309489,198.840762 273.129779,211.288178 294.784397,206.583525 C299.855518,205.489507 304.588149,203.82172 308.983534,201.573941 C323.528628,194.136109 333.362246,181.209515 338.769368,163.971567 C345.975959,140.999667 367.447643,112.241542 383.98634,99.6348149 C400.267437,87.2645646 435.533814,65.183811 472.135482,70.2394461 C508.367549,75.2440518 515.803119,100.840849 521.306062,110.708174 C527.520829,121.849987 530.34199,145.230121 484.677016,170.066457 C484.456749,170.687521 476.794691,175.556464 468.898676,183.137427 C461.766752,189.985311 454.687094,198.458664 451.743977,207.741019 C447.357303,221.581163 454.790383,230.142884 470.825079,232.267446 C478.373894,233.268118 488.288401,233.388846 500.566112,230.226274 C521.981797,224.707641 537.27107,230.485154 548.013134,239.531032 C555.528348,245.861155 559.098666,254.910766 561.311292,261.443762 C566.63628,277.160788 567.186325,307.443569 532.64795,327.795549 C498.541398,347.892383 490.842006,347.395781 499.736067,370.128714 C506.249501,386.775469 514.223916,398.375301 513.524537,412.076047 C513.254492,417.373138 511.959023,423.03988 508.490749,429.305283 C497.631707,448.920449 479.434162,434.230233 462.113952,435.960251 C459.363725,436.234066 456.655809,436.82277 454.043715,437.993955 C435.028569,446.543231 445.047609,475.227923 445.088676,482.739188 C445.112321,485.209753 445.634988,489.930586 445.717122,496.151183 C445.887611,509.016791 446.053122,528.116686 438.055063,546.965169 C426.750509,573.607444 412.736794,583.296789 392.589201,582.993102 C390.447508,582.960742 388.302082,582.668257 386.149189,582.294872 C359.657406,577.760732 338.616301,548.939132 330.570952,534.530198 C323.289694,521.479142 309.447713,483.139955 293.332128,469.001103 C277.964455,455.516921 258.30344,460.243977 249.046001,470.676358 C239.868206,480.950673 227.583028,503.57408 212.323622,518.977462 C194.908834,536.55519 162.911619,563.090429 114.288595,546.56938 C72.4266507,532.354607 63.9245905,488.53537 64,473.756785 C64.0303684,467.892149 65.0533037,458.858718 70.6396252,449.197999 C77.9532387,436.551444 91.2725524,423.229061 113.778372,412.918653 C121.853587,409.218406 128.648266,406.315958 133.996898,404.110497 C148.881726,397.973289 159.642457,393.470264 164.524422,385.614241 C166.678559,382.146737 167.96905,378.182631 168.278918,372.945282 C169.456164,352.969176 158.451522,328.101725 158.242455,317.721618 C158.024676,306.912117 157.743431,297.37835 166.836604,285.712553 C168.860074,283.11877 170.205321,280.502585 171.097589,277.793053 C174.825952,266.469526 167.614383,253.849108 164.226999,235.891771 C159.990902,213.440122 175.387197,196.568091 186.946863,189.901921 Z" id="Stroke-31" stroke="url(#linearGradient-16)" stroke-width="0.5"></path>
                    <path d="M182.145573,184.184966 C194.200348,177.211533 212.641233,164.930875 244.176376,184.498546 C258.587397,193.423147 271.924119,206.416827 294.607489,201.425671 C299.908108,200.265921 304.843168,198.516341 309.411424,196.176931 C324.536158,188.429502 334.83152,174.943052 340.374603,156.864888 C347.82009,132.919533 370.495999,102.860604 387.673588,89.8308366 C404.637312,76.9976795 441.594928,53.8536972 480.025975,59.3214459 C518.132494,64.8775447 525.656315,92.0669641 531.149662,102.461162 C537.202539,113.91556 539.869635,138.267823 491.398123,164.201676 C491.2141,164.719333 483.148155,169.791373 474.829801,177.731679 C467.442754,184.834526 460.05322,193.719306 457.103872,203.527407 C452.719639,218.106411 460.919871,227.272418 478.261588,229.181277 C486.476741,230.084688 497.135177,229.810927 510.12499,226.259504 C532.82328,220.05509 548.738817,226.280658 559.602414,235.990454 C567.315232,242.884247 571.024298,252.468362 573.133106,259.474148 C578.166395,276.193464 578.252189,308.010684 541.478597,328.977024 C505.056886,349.743021 497.254543,348.977735 507.275114,372.936778 C514.599991,390.451243 523.623354,402.638574 522.928293,417.038389 C522.662205,422.562134 521.197478,428.461678 517.423755,435.003316 C505.569167,455.55777 485.869961,439.490503 467.573311,440.828198 C464.664995,441.03974 461.808903,441.60966 459.058499,442.805497 C439.049686,451.533487 450.276356,482.356459 450.742631,490.42369 C450.90303,493.07668 451.563276,498.108901 451.767194,504.699068 C452.184977,518.283823 452.228496,538.344264 443.631619,557.719058 C431.321947,585.462221 416.285495,594.766353 395.938476,593.951293 C393.737656,593.862943 391.533105,593.529453 389.318608,593.111345 C362.089363,588.015662 340.413149,558.77677 332.168155,543.998668 C324.559782,530.351695 310.401172,490.456043 293.780627,475.349428 C277.758158,460.785356 256.99087,465.678207 247.421653,476.203064 C237.919581,486.594773 225.115034,510.309919 209.250477,526.561353 C191.606613,544.634539 158.668913,573.483944 107.296546,556.325367 C63.0637884,541.558464 54.3102433,495.596524 54.0093402,480.552126 C53.8862435,474.427352 54.9207533,464.94652 60.6615371,454.747687 C68.0784257,441.571085 81.8403911,427.542091 105.558271,416.714854 C113.897763,412.907091 120.97769,409.896967 126.677441,407.545113 C142.541998,400.999743 153.607026,396.408028 158.763412,388.425414 C161.082355,384.834171 162.44761,380.694162 162.798249,375.207747 C164.126201,354.293671 152.568786,328.199294 152.284047,317.535069 C151.989361,306.512466 151.518112,296.379585 161.163176,284.144969 C163.289392,281.426027 164.71806,278.708329 165.651855,275.906015 C169.633226,263.967558 162.145463,250.910414 158.565711,232.200112 C154.054651,208.624334 170.350668,191.016541 182.145573,184.184966 Z" id="Stroke-33" stroke="url(#linearGradient-17)" stroke-width="0.5"></path>
                    <path d="M176.477213,177.97491 C188.740187,170.856654 207.941651,157.661384 241.094705,178.237397 C256.062198,187.511532 269.927988,201.05015 293.66061,195.773037 C299.195238,194.548926 304.334446,192.717736 309.079478,190.285686 C324.79802,182.229443 335.522837,168.172069 341.247714,149.270501 C348.883784,124.335457 372.838985,92.9962233 390.67016,79.5434416 C408.329737,66.2486498 447.021149,41.9667147 487.304185,47.9243041 C527.326095,53.9528023 534.943514,82.8089818 540.422186,93.7301924 C546.32612,105.497333 548.835416,130.818021 497.515455,157.845498 C497.368727,158.259755 488.877158,163.516964 480.145603,171.831962 C472.480933,179.174141 464.790151,188.485596 461.831966,198.818387 C457.446293,214.135948 466.42281,223.901468 485.083371,225.597061 C493.974089,226.404427 505.381564,225.733903 519.096896,221.79535 C543.093132,214.904749 559.643546,221.576403 570.645654,231.951491 C578.554041,239.410607 582.417462,249.529428 584.421915,257.004716 C589.174408,274.734422 588.791424,308.067813 549.748114,329.651479 C510.983339,351.080887 503.071221,350.05333 514.225031,375.2322 C522.369675,393.617503 532.419296,406.386076 531.756533,421.48469 C531.484216,427.234529 529.856531,433.363792 525.776748,440.18224 C512.915671,461.670117 491.698562,444.23151 472.411299,445.176962 C469.341204,445.327488 466.335768,445.877342 463.44473,447.097721 C442.424088,456.004871 454.868607,488.962569 455.758922,497.583595 C456.057352,500.418706 456.855651,505.762996 457.180193,512.720774 C457.846686,527.024462 457.765862,548.039613 448.565522,567.94137 C435.233175,596.777645 419.172683,605.694747 398.603416,604.374847 C396.342811,604.229297 394.077232,603.856093 391.797975,603.392075 C363.808999,597.736781 341.477753,568.083188 333.027219,552.937301 C325.085258,538.697058 310.602713,497.250199 293.456683,481.175033 C276.771976,465.531541 254.873453,470.592195 244.986725,481.207378 C235.15098,491.716819 221.812415,516.515021 205.332878,533.617743 C187.442018,552.183428 153.53916,583.346012 99.3729247,565.550373 C52.7320922,550.234056 43.7145412,502.13918 43.0405875,486.824107 C42.7608096,480.441064 43.8165047,470.513822 49.7129783,459.77797 C57.2421111,446.071409 71.4560692,431.337291 96.4072795,419.99436 C105.016976,416.080687 112.389434,412.963185 118.44507,410.465202 C135.301374,403.512401 146.68025,398.834903 152.114158,390.723923 C154.602315,387.010537 156.044726,382.691316 156.433928,376.958893 C157.914885,355.109008 145.793665,327.789188 145.433063,316.841853 C145.062513,305.60715 144.430836,294.897423 154.604802,282.074113 C156.841782,279.236514 158.348852,276.411355 159.326209,273.517775 C163.563911,260.964417 155.759974,247.478046 152.018412,228.011695 C147.186337,203.320478 164.438061,184.971252 176.477213,177.97491 Z" id="Stroke-35" stroke="url(#linearGradient-18)" stroke-width="0.5"></path>
                    <path d="M170.93621,171.141267 C183.418719,163.883545 203.394465,149.789326 238.194901,171.351257 C253.732699,180.967335 268.137986,195.037946 292.93997,189.481272 C298.712041,188.191508 304.062221,186.280469 308.98802,183.75934 C325.312353,175.401963 336.475673,160.787116 342.38713,141.077823 C350.218877,115.179399 375.473866,82.5898557 393.974859,68.72675 C412.346423,54.9829288 452.804434,29.5864945 494.971168,36.0278622 C536.943757,42.521417 544.667231,73.016025 550.130661,84.45492 C555.894021,96.5250293 558.242425,122.787519 504.031253,150.88401 C503.921736,151.194647 494.994814,156.632036 485.842634,165.31496 C477.895146,172.888289 469.89539,182.617438 466.927216,193.464881 C462.536559,209.507415 472.301041,219.860323 492.292967,221.34144 C501.868282,222.050935 514.033438,220.988557 528.486017,216.666976 C553.799498,209.097374 570.99126,216.204748 582.149601,227.23733 C590.256387,235.254248 594.283645,245.90164 596.181533,253.834065 C600.661795,272.567958 599.806812,307.374207 558.460215,329.55617 C517.318964,351.627547 509.289339,350.343995 521.586414,376.715829 C530.558139,395.955439 541.676656,409.292947 541.012084,425.072062 C540.744512,431.043746 538.942451,437.396893 534.551794,444.485629 C520.672938,466.885038 497.921918,448.092745 477.625086,448.646921 C474.39183,448.735142 471.232001,449.264467 468.199113,450.510743 C446.148756,459.587554 459.821022,494.64604 461.137722,503.813558 C461.574547,506.827979 462.511669,512.480329 462.957206,519.797693 C463.871926,534.80767 463.666581,556.751064 453.854807,577.166125 C439.486855,607.063067 422.394655,615.583217 401.583838,613.767855 C399.260324,613.56532 396.930588,613.152794 394.585917,612.644592 C365.812678,606.433095 342.807777,576.392017 334.144692,560.893719 C325.864919,546.072609 311.050185,503.116489 293.360617,486.087371 C276.003335,469.378831 252.951142,474.602502 242.736144,485.299596 C232.559727,495.915924 218.672159,521.773344 201.567514,539.712006 C183.41374,558.752809 148.518721,592.197225 91.5123639,573.781424 C42.4236253,557.929 33.1295705,507.756162 32.0879096,492.177098 C31.6448614,485.544378 32.7275914,475.176559 38.7846569,463.914106 C46.4334599,449.691904 61.0888951,434.219699 87.3146072,422.420465 C96.1967268,418.387155 103.872909,415.181381 110.290885,412.539725 C128.154685,405.186327 139.856881,400.429854 145.572949,392.194247 C148.231238,388.363472 149.750793,383.870419 150.180152,377.89625 C151.814203,355.130289 139.138795,326.612575 138.682057,315.391125 C138.255187,303.955958 137.441273,292.681079 148.155322,279.281444 C150.504971,276.326665 152.09173,273.396738 153.113479,270.41338 C157.612409,257.259769 149.524291,243.349447 145.577927,223.15059 C140.471673,197.360268 158.641625,178.2971 170.93621,171.141267 Z" id="Stroke-37" stroke="url(#linearGradient-19)" stroke-width="0.5"></path>
                    <path d="M166.15204,165.155515 C178.83003,157.73993 199.545991,142.709684 235.930092,165.313532 C252.008523,175.295955 266.92695,189.935514 292.752898,184.082677 C298.751849,182.726471 304.303209,180.729488 309.400763,178.111638 C326.301019,169.433163 337.882412,154.223748 343.969638,133.657942 C351.983987,106.727921 378.49251,72.805351 397.62823,58.4979996 C416.676918,44.2690344 458.827472,17.6948619 502.803198,24.6351528 C546.648378,31.6115264 554.472501,63.8207971 559.900775,75.8076676 C565.519274,88.2125978 567.698789,115.482293 510.69446,144.719108 C510.621105,144.92565 501.276419,150.558259 491.721614,159.629909 C483.504606,167.4536 475.188133,177.620168 472.237768,189.016032 C467.816573,205.814323 478.387159,216.788394 499.671311,218.062481 C509.914908,218.675884 522.811719,217.217651 537.977563,212.500792 C564.560685,204.232912 582.358607,211.792827 593.657771,223.513434 C601.943161,232.108545 606.134344,243.311553 607.919732,251.721274 C612.123349,271.513173 610.795498,307.87318 567.220116,330.709699 C523.779011,353.476541 515.646547,351.939922 529.06306,379.567954 C538.846634,399.713212 551.012381,413.651029 550.345969,430.15195 C550.086118,436.359392 548.111749,442.952544 543.417026,450.329558 C528.547089,473.697361 504.303869,453.466251 483.034636,453.670304 C479.644141,453.690212 476.335704,454.205321 473.166518,455.479408 C450.126818,464.74889 465.002972,501.999763 466.741113,511.734585 C467.316764,514.937222 468.389737,520.911994 468.956684,528.60753 C470.117932,544.36316 469.787213,567.28553 459.38323,588.269397 C443.999807,619.296653 425.91841,627.443843 404.897839,625.132072 C402.518152,624.86954 400.127275,624.41913 397.721478,623.864206 C368.216588,617.083175 344.581344,586.578494 335.721547,570.685999 C327.116627,555.247646 312.001759,510.675749 293.796032,492.646919 C275.804153,474.830851 251.635532,480.232035 241.110948,491.035646 C230.612474,501.788245 216.197586,528.765547 198.504101,547.589437 C180.115608,567.152398 144.294724,602.963702 84.55388,583.882257 C33.1071288,567.453501 23.5485937,515.081552 22.1461447,499.191546 C21.5381682,492.296047 22.6509269,481.46133 28.8562662,469.641185 C36.6107645,454.866005 51.7057404,438.677384 79.1330666,426.330933 C88.2775809,422.19015 96.2372247,418.865579 103.004538,416.073536 C121.841865,408.302102 133.847225,403.457087 139.834986,395.073495 C142.66102,391.118101 144.252452,386.43608 144.721178,380.204998 C146.505322,356.46766 133.276548,326.678408 132.748143,315.155634 C132.240874,303.489773 131.272339,291.621104 142.503121,277.608634 C144.963623,274.531664 146.627166,271.489532 147.688949,268.40883 C152.443351,254.621565 144.084606,240.249513 139.940667,219.26938 C134.569586,192.31323 153.624491,172.486493 166.15204,165.155515 Z" id="Stroke-39" stroke="url(#linearGradient-20)" stroke-width="0.5"></path>
                    <path d="M160.738418,159.047002 C173.643507,151.480246 195.150329,135.527695 233.20814,159.15405 C249.86995,169.492836 265.338874,184.687342 292.253531,178.545809 C298.49564,177.12183 304.260843,175.041874 309.541669,172.330837 C327.061411,163.337611 339.091136,147.545632 345.36811,126.142377 C353.583835,98.2054978 381.412458,62.9794379 401.23081,48.2392612 C421.006826,33.538916 464.954358,5.80741819 510.848113,13.2434776 C556.678364,20.6969634 564.62762,54.5923993 570.029229,67.116944 C575.520492,79.8493598 577.530219,108.098668 517.589541,138.450338 C517.55343,138.553651 507.767527,144.375286 497.784885,153.829065 C489.279032,161.896206 480.658621,172.500121 477.683876,184.424702 C473.270943,201.977985 484.627024,213.549061 507.255757,214.615801 C518.1947,215.131122 531.854371,213.278953 547.770316,208.171797 C575.688592,199.212179 594.133506,207.213349 605.607878,219.61591 C614.086338,228.780909 618.45818,240.534961 620.135443,249.411182 C624.075206,270.25306 622.233578,308.054481 576.35352,331.598683 C530.469726,354.969867 522.24902,353.252129 536.818921,382.112604 C547.439097,403.147416 560.681631,417.671009 560.014212,434.880744 C559.75895,441.318524 557.593574,448.134704 552.597895,455.806019 C536.652066,480.085861 510.904146,458.524525 488.607878,458.317898 C485.050386,458.279312 481.586284,458.772228 478.271603,460.072978 C454.186005,469.526756 470.302424,508.936377 472.469045,519.232843 C473.183781,522.618528 474.380403,528.914408 475.085177,536.979059 C476.463596,553.470581 476.037743,577.345884 465.016617,598.88108 C448.57645,631.007745 429.467853,638.772415 408.180183,635.971756 C405.737131,635.650614 403.280383,635.161432 400.807447,634.560224 C370.497173,627.213786 346.171253,596.273356 337.092615,580.003397 C328.140986,563.959981 312.69323,517.815087 293.922078,498.799238 C275.255521,479.887948 249.904815,485.46188 239.044319,496.364533 C228.198764,507.241045 213.215462,535.312356 194.891331,555.009076 C176.222284,575.075483 139.388489,613.226675 76.7619481,593.496347 C22.8280383,576.504441 12.9786311,521.984956 11.214205,505.794661 C10.4347197,498.641157 11.5865151,487.346412 17.9518969,474.979949 C25.8351582,459.665949 41.4074322,442.772377 70.1027028,429.891837 C79.5349734,425.644794 87.7955256,422.206831 94.9304312,419.266761 C114.788629,411.082615 127.12716,406.154701 133.401643,397.630741 C136.401292,393.554227 138.069839,388.687305 138.579119,382.204714 C140.517871,357.514109 126.701307,326.480324 126.101128,314.666524 C125.510911,302.78053 124.384019,290.326935 136.163462,275.716211 C138.738503,272.518481 140.486741,269.369296 141.589975,266.192727 C146.63048,251.791119 137.960263,236.962566 133.607099,215.219498 C127.957698,187.119558 147.947885,166.549033 160.738418,159.047002 Z" id="Stroke-41" stroke="url(#linearGradient-21)" stroke-width="0.5"></path>
                    <path d="M154.955069,152.198212 C168.055937,144.493831 190.298304,127.644148 229.936762,152.252915 C247.136315,162.932379 263.11808,178.656926 291.053826,172.235572 C318.988329,165.814218 337.536281,146.839832 345.932678,117.94063 C354.330319,89.0414287 383.409219,52.5708727 403.860355,37.4219473 C424.311491,22.2742652 469.948086,-6.56774708 517.644598,1.35047251 C565.342353,9.26869209 573.404138,44.7943829 578.75793,57.8347668 C584.112966,70.876394 585.944002,100.059055 523.218562,131.474582 C523.218562,131.474582 488.491063,151.898591 481.964263,179.051035 C475.43622,206.203479 505.329882,219.824457 556.222,203.020775 C607.114118,186.217092 627.160983,224.349865 630.828032,246.21355 C634.493836,268.075991 632.214992,307.388603 584.07316,331.464018 C535.931329,355.538191 527.572249,353.507974 543.259207,383.549716 C558.944921,413.591459 580.009304,430.814115 560.425174,460.053965 C540.8398,489.292572 507.280334,453.807908 482.209314,463.431858 C457.13705,473.055808 474.453531,514.560258 477.043353,525.400101 C479.633175,536.241187 486.814271,575.172122 469.516449,608.032298 C450.0281,645.053611 427.274486,649.93583 402.919959,643.738259 C371.881899,635.838688 346.926563,604.512675 337.651965,587.890506 C328.376123,571.26958 312.636921,523.625992 293.343866,503.653281 C274.050811,483.68057 247.580391,489.41814 236.412561,500.400955 C225.244731,511.385014 209.728189,540.503026 190.823234,561.04017 C171.91828,581.578557 134.166834,622.005115 68.8117662,601.656944 C12.5260513,584.130937 2.40808172,527.560859 0.288457899,511.086635 C-1.83116592,494.613655 6.69211014,456.572882 60.931592,432.267467 C110.674337,409.977349 130.034563,408.698051 132.123089,383.097176 C134.211615,357.4963 119.841958,325.267691 119.171491,313.182119 C118.499779,301.095303 117.218551,288.07854 129.515852,272.893561 C144.53483,254.34685 132.514921,237.698573 126.973298,210.336021 C121.059747,181.140927 141.932568,159.857837 154.955069,152.198212 Z" id="Stroke-43" stroke="url(#linearGradient-22)" stroke-width="0.5"></path>
                </g>
            </g>
        </g>
    </g>
</svg>